<?xml version="1.0" encoding="utf-8"?>
<!-- Generator: Adobe Illustrator 23.0.4, SVG Export Plug-In . SVG Version: 6.00 Build 0)  -->
<svg version="1.1" id="social_media_2" xmlns="http://www.w3.org/2000/svg" xmlns:xlink="http://www.w3.org/1999/xlink" x="0px" y="0px"
	 viewBox="0 0 8.25 17" style="enable-background:new 0 0 8.25 17;" xml:space="preserve">
<style type="text/css">
	.social_media-st0{fill:#081E40;}
</style>
<path id="Facebook_1_" class="social_media-st0" d="M1.78,3.42c0,0.45,0,2.43,0,2.43H0v2.98h1.78V17h3.66V8.83H7.9c0,0,0.23-1.43,0.34-2.99
	c-0.32,0-2.79,0-2.79,0s0-1.73,0-2.03c0-0.3,0.4-0.71,0.79-0.71c0.39,0,1.23,0,2,0c0-0.41,0-1.81,0-3.1c-1.03,0-2.2,0-2.71,0
	C1.69,0,1.78,2.98,1.78,3.42z"/>
</svg>
