<?xml version="1.0" encoding="utf-8"?>
<!-- Generator: Adobe Illustrator 23.0.4, SVG Export Plug-In . SVG Version: 6.00 Build 0)  -->
<svg version="1.1" id="social_media_4" xmlns="http://www.w3.org/2000/svg" xmlns:xlink="http://www.w3.org/1999/xlink" x="0px" y="0px"
	 viewBox="0 0 16.3 16.76" style="enable-background:new 0 0 16.3 16.76;" xml:space="preserve">
<style type="text/css">
	.social_media-st0{fill:#001D41;}
</style>
<g id="sTPfMl_1_">
	<g>
		<path class="social_media-st0" d="M12.33,7.6c1,0,2,0.05,3,0c0.75-0.05,0.95,0.25,0.95,0.9c0.3,3.95-1.95,7.15-5.9,8.05
			c-4.55,1.05-9.2-1.9-10.2-6.55c-1.15-5.5,3.5-10.55,9.1-9.95c1.65,0.2,3.15,0.7,4.5,1.75c0.4,0.3,0.45,0.45,0.1,0.85
			c-1.05,1.1-1,1.05-2.35,0.4c-2.25-1.15-4.5-1.1-6.55,0.4c-2.1,1.6-2.9,3.8-2.25,6.4c0.6,2.45,2.25,4.05,4.65,4.45
			c3.2,0.6,5.8-0.95,6.55-3.7c0.15-0.65,0-0.75-0.6-0.7c-1.35,0.05-2.75,0-4.1,0c-0.5,0-0.7-0.1-0.7-0.65c0-1.7-0.05-1.7,1.65-1.7
			C10.88,7.6,11.63,7.6,12.33,7.6z"/>
	</g>
</g>
</svg>
