<svg version="1.1" id="google" xmlns="http://www.w3.org/2000/svg" xmlns:xlink="http://www.w3.org/1999/xlink" x="0px" y="0px" viewBox="0 0 26.2 26.6" style="enable-background:new 0 0 26.2 26.6;" xml:space="preserve">
<style type="text/css">
	
</style>
<g>
	<g>
		<path class="socialmedia-st4" d="M26.1,10.7c-2.6,0-12.8,0-12.8,0v5.3c0,0,5.1,0,7.2,0c-1.1,3.4-2.9,5.3-7.2,5.3c-4.4,0-7.8-3.5-7.8-7.9
			c0-4.4,3.4-7.9,7.8-7.9c2.3,0,3.8,0.8,5.2,1.9c1.1-1.1,1-1.2,3.8-3.9C19.9,1.3,16.7,0,13.3,0C6,0,0,6,0,13.3
			c0,7.3,6,13.3,13.3,13.3C24.3,26.6,26.9,17,26.1,10.7z"/>
	</g>
</g>
</svg>
