<svg version="1.1" id="linkedin" xmlns="http://www.w3.org/2000/svg" xmlns:xlink="http://www.w3.org/1999/xlink" x="0px" y="0px"
	 width="19px" height="17.4px" viewBox="0 0 19 17.4" style="enable-background:new 0 0 19 17.4;" xml:space="preserve">
<path style="fill:#081E40;" d="M4.2,17.4H0.5V5.6h3.7V17.4z M2.2,4.1L2.2,4.1C0.9,4.1,0,3.2,0,2.1C0,0.9,0.9,0,2.3,0
	c1.4,0,2.2,0.9,2.2,2.1C4.5,3.2,3.6,4.1,2.2,4.1z M19,17.4h-4.2v-6.1c0-1.6-0.7-2.7-2.1-2.7c-1.1,0-1.7,0.7-2,1.5
	c-0.1,0.3-0.1,0.6-0.1,1v6.4H6.4c0,0,0.1-10.9,0-11.9h4.2v1.9c0.2-0.8,1.6-2,3.7-2c2.6,0,4.7,1.7,4.7,5.4V17.4z"/>
</svg>
