<?xml version="1.0" encoding="utf-8"?>
<!-- Generator: Adobe Illustrator 23.0.4, SVG Export Plug-In . SVG Version: 6.00 Build 0)  -->
<svg version="1.1" id="Layer_1" xmlns="http://www.w3.org/2000/svg" xmlns:xlink="http://www.w3.org/1999/xlink" x="0px" y="0px"
	 viewBox="0 0 244.97 17.46" style="enable-background:new 0 0 244.97 17.46;" xml:space="preserve">
<style type="text/css">
	.st0{fill:#001D41;}
</style>
<g>
	<path class="st0" d="M52.02,0h0.89v0.96c0,0.7-0.36,1.06-1.13,1.06h-0.89V1.06C50.92,0.36,51.29,0,52.02,0z M50.92,4.67
		c0-0.7,0.36-1.06,1.13-1.06h0.89v10.11h-0.89c-0.73,0-1.13-0.36-1.13-1.06V4.67z"/>
	<path class="st0" d="M58.01,11.66c0.27,0.23,0.56,0.33,0.96,0.33v0.93c0,0.46-0.2,0.73-0.63,0.83c-0.33,0.1-0.66,0.07-1.03-0.13
		c-0.53-0.27-0.96-0.63-1.26-1.13c-0.36-0.56-0.53-1.23-0.53-2.05V1.06c0-0.7,0.36-1.06,1.13-1.06h0.89v10.47
		C57.55,11,57.72,11.4,58.01,11.66z"/>
	<path class="st0" d="M68.35,4.47c0.99,0.83,1.49,1.82,1.49,3.01v6.23h-0.6c-0.5,0-0.86-0.27-1.13-0.83
		c-0.83,0.8-1.95,1.13-3.11,1.13c-1.29,0-2.42-0.4-3.35-1.16c-0.99-0.83-1.49-1.82-1.49-3.01V7.49c0-1.19,0.5-2.22,1.49-3.01
		c0.93-0.76,2.05-1.16,3.35-1.16C66.26,3.31,67.39,3.71,68.35,4.47z M65,5.3c-0.83,0-1.49,0.23-2.05,0.73
		c-0.5,0.43-0.76,0.89-0.76,1.46v2.35c0,0.56,0.27,1.06,0.76,1.46c0.56,0.46,1.26,0.7,2.05,0.7s1.49-0.23,2.05-0.7
		c0.5-0.43,0.76-0.89,0.76-1.46V7.49c0-0.56-0.27-1.06-0.76-1.46C66.5,5.53,65.83,5.3,65,5.3z"/>
	<path class="st0" d="M84.29,4.67c0-0.7,0.36-1.06,1.13-1.06h0.89v6.23c0,1.29-0.36,2.32-1.06,3.05c-0.73,0.76-1.72,1.13-2.98,1.13
		s-2.29-0.43-3.05-1.29c-0.76,0.86-1.79,1.29-3.05,1.29c-1.26,0-2.25-0.36-2.98-1.13c-0.73-0.73-1.06-1.76-1.06-3.05V4.67
		c0-0.7,0.36-1.06,1.13-1.06h0.89v6.23c0,0.76,0.17,1.33,0.53,1.66c0.33,0.33,0.83,0.53,1.52,0.53c0.63,0,1.13-0.17,1.46-0.53
		c0.36-0.4,0.56-0.93,0.56-1.62v-5.2c0-0.7,0.36-1.06,1.13-1.06h0.89v6.23c0,0.7,0.2,1.23,0.56,1.62c0.36,0.36,0.86,0.53,1.46,0.53
		c0.7,0,1.19-0.17,1.52-0.53s0.53-0.89,0.53-1.66L84.29,4.67L84.29,4.67z"/>
	<path class="st0" d="M97.51,3.61l-3.94,11.1c-0.1,0.27-0.2,0.5-0.3,0.76c-0.07,0.23-0.17,0.43-0.33,0.66
		c-0.27,0.43-0.66,0.76-1.13,0.99c-0.36,0.17-0.73,0.2-1.03,0.13c-0.4-0.1-0.6-0.36-0.6-0.83v-0.93c0.23,0,0.46-0.07,0.66-0.17
		c0.27-0.13,0.43-0.27,0.5-0.5l0.4-1.03c-0.63-0.17-1.03-0.46-1.23-0.96l-2.95-8.32c-0.1-0.27-0.1-0.46,0-0.63
		c0.1-0.17,0.27-0.27,0.56-0.27h1.26l2.95,8.35h0.03l2.72-7.59c0.17-0.5,0.53-0.76,1.06-0.76L97.51,3.61L97.51,3.61z"/>
	<path class="st0" d="M105.69,3.81c0.5,0.27,0.93,0.63,1.26,1.06c0.36,0.53,0.56,1.13,0.56,1.76c0.03,0.53-0.1,1.03-0.33,1.49
		c-0.23,0.36-0.5,0.7-0.86,0.96s-0.76,0.46-1.23,0.56c-0.4,0.13-0.83,0.17-1.33,0.17h-2.42c-0.17,0-0.3,0-0.36-0.03
		c-0.13-0.03-0.27-0.1-0.33-0.17v0.83c0,0.46,0.23,0.86,0.73,1.13c0.4,0.23,0.86,0.36,1.36,0.4c0.46,0.07,0.96,0.03,1.46-0.1
		c0.36-0.07,0.66-0.23,0.96-0.43c0.07-0.07,0.17-0.13,0.27-0.23c0.3-0.36,0.7-0.43,1.19-0.17l0.96,0.46
		c-0.17,0.43-0.43,0.8-0.76,1.13c-0.46,0.46-1.03,0.83-1.72,1.03c-0.6,0.23-1.26,0.33-1.95,0.33c-0.6,0-1.13-0.07-1.56-0.17
		c-0.56-0.13-1.03-0.33-1.46-0.63c-0.5-0.33-0.86-0.76-1.13-1.33c-0.23-0.53-0.36-1.09-0.36-1.72V6.86c0-0.5,0.13-0.99,0.33-1.46
		c0.33-0.73,0.93-1.26,1.69-1.62c0.7-0.33,1.46-0.5,2.35-0.5C103.9,3.31,104.86,3.41,105.69,3.81z M104.93,7.59
		c0.33-0.17,0.5-0.46,0.56-0.83c0.03-0.36-0.1-0.7-0.36-0.93c-0.4-0.33-0.96-0.43-1.46-0.5c-0.56-0.03-1.09,0.03-1.52,0.13
		c-0.43,0.1-0.76,0.27-1.03,0.46c-0.3,0.27-0.46,0.56-0.46,0.96v0.96h3.31C104.33,7.82,104.7,7.72,104.93,7.59z"/>
	<path class="st0" d="M109.33,7.16c0-1.19,0.36-2.12,1.16-2.75c0.63-0.53,1.39-0.8,2.29-0.8h1.33v0.89c0,0.73-0.33,1.13-1.03,1.13
		h-0.27c-0.36,0-0.66,0.13-0.96,0.33c-0.33,0.27-0.46,0.66-0.46,1.19v6.56h-0.89c-0.73,0-1.13-0.36-1.13-1.06L109.33,7.16
		L109.33,7.16z"/>
	<path class="st0" d="M127.19,5.83c-0.33-0.33-0.83-0.53-1.52-0.53c-0.63,0-1.13,0.17-1.46,0.56c-0.36,0.43-0.56,0.96-0.56,1.62
		v6.23h-0.89c-0.73,0-1.13-0.36-1.13-1.06V7.49c0-0.66-0.17-1.23-0.56-1.62C120.7,5.5,120.2,5.3,119.6,5.3
		c-0.7,0-1.23,0.17-1.52,0.53c-0.33,0.36-0.53,0.93-0.53,1.66v6.23h-0.89c-0.73,0-1.13-0.36-1.13-1.06V7.49
		c0-1.26,0.36-2.29,1.06-3.05c0.73-0.76,1.72-1.16,2.98-1.16c1.06,0,1.92,0.33,2.65,0.93c0.1,0.07,0.23,0.2,0.4,0.36
		c0.13-0.13,0.27-0.27,0.36-0.36c0.7-0.63,1.59-0.93,2.65-0.93c1.26,0,2.25,0.36,2.98,1.16c0.73,0.76,1.06,1.76,1.06,3.05v6.23
		h-0.89c-0.73,0-1.13-0.36-1.13-1.06V7.49C127.69,6.76,127.52,6.2,127.19,5.83z"/>
	<path class="st0" d="M139.82,4.47c0.99,0.83,1.49,1.82,1.49,3.01v6.23h-0.6c-0.5,0-0.86-0.27-1.13-0.83
		c-0.83,0.8-1.95,1.13-3.11,1.13c-1.29,0-2.42-0.4-3.35-1.16c-0.99-0.83-1.49-1.82-1.49-3.01V7.49c0-1.19,0.5-2.22,1.49-3.01
		c0.93-0.76,2.05-1.16,3.35-1.16C137.76,3.31,138.89,3.71,139.82,4.47z M136.5,5.3c-0.83,0-1.49,0.23-2.05,0.73
		c-0.5,0.43-0.76,0.89-0.76,1.46v2.35c0,0.56,0.27,1.06,0.76,1.46c0.56,0.46,1.26,0.7,2.05,0.7s1.49-0.23,2.05-0.7
		c0.5-0.43,0.76-0.89,0.76-1.46V7.49c0-0.56-0.27-1.06-0.76-1.46C137.99,5.53,137.3,5.3,136.5,5.3z"/>
	<path class="st0" d="M143.59,7.16c0-1.19,0.36-2.12,1.16-2.75c0.63-0.53,1.39-0.8,2.29-0.8h1.33v0.89c0,0.73-0.33,1.13-1.03,1.13
		h-0.27c-0.36,0-0.66,0.13-0.96,0.33c-0.33,0.27-0.46,0.66-0.46,1.19v6.56h-0.89c-0.73,0-1.13-0.36-1.13-1.06v-5.5H143.59z"/>
	<path class="st0" d="M149.95,1.06c0-0.7,0.36-1.06,1.13-1.06h0.89v7.82h0.73c0.4,0,0.76,0.03,1.03-0.36l1.89-3.11
		c0.3-0.46,0.73-0.73,1.23-0.73h1.56l-2.42,3.94c-0.13,0.23-0.27,0.43-0.4,0.56c0.66,0.3,1.16,0.86,1.52,1.66l1.72,3.94h-1.29
		c-0.6,0-0.99-0.23-1.16-0.63l-1.09-2.52c-0.23-0.5-0.6-0.76-1.13-0.76h-2.15v3.91h-0.89c-0.73,0-1.13-0.36-1.13-1.06L149.95,1.06
		L149.95,1.06z"/>
	<path class="st0" d="M167.05,3.81c0.5,0.27,0.93,0.63,1.26,1.06c0.36,0.53,0.56,1.13,0.56,1.76c0.03,0.53-0.1,1.03-0.33,1.49
		c-0.23,0.36-0.5,0.7-0.86,0.96c-0.36,0.27-0.76,0.46-1.23,0.56c-0.4,0.13-0.83,0.17-1.33,0.17h-2.42c-0.17,0-0.3,0-0.36-0.03
		c-0.13-0.03-0.27-0.1-0.33-0.17v0.83c0,0.46,0.23,0.86,0.73,1.13c0.4,0.23,0.86,0.36,1.36,0.4c0.46,0.07,0.96,0.03,1.46-0.1
		c0.36-0.07,0.66-0.23,0.96-0.43c0.07-0.07,0.17-0.13,0.27-0.23c0.3-0.36,0.7-0.43,1.19-0.17l0.96,0.46
		c-0.17,0.43-0.43,0.8-0.76,1.13c-0.46,0.46-1.03,0.83-1.72,1.03c-0.6,0.23-1.26,0.33-1.95,0.33c-0.6,0-1.13-0.07-1.56-0.17
		c-0.56-0.13-1.03-0.33-1.46-0.63c-0.5-0.33-0.86-0.76-1.13-1.33c-0.23-0.53-0.36-1.09-0.36-1.72V6.86c0-0.5,0.13-0.99,0.33-1.46
		c0.33-0.73,0.93-1.26,1.69-1.62c0.7-0.33,1.46-0.5,2.35-0.5C165.26,3.31,166.22,3.41,167.05,3.81z M166.32,7.59
		c0.33-0.17,0.5-0.46,0.56-0.83c0.03-0.36-0.1-0.7-0.36-0.93c-0.4-0.33-0.96-0.43-1.46-0.5c-0.56-0.03-1.09,0.03-1.52,0.13
		c-0.43,0.1-0.76,0.27-1.03,0.46c-0.3,0.27-0.46,0.56-0.46,0.96v0.96h3.31C165.72,7.82,166.06,7.72,166.32,7.59z"/>
	<path class="st0" d="M175.17,3.61v0.89c0,0.73-0.36,1.13-1.06,1.13h-1.33v4.84c0,0.53,0.17,0.93,0.46,1.19
		c0.27,0.23,0.56,0.33,0.93,0.33v0.93c0,0.46-0.2,0.73-0.6,0.83c-0.33,0.1-0.66,0.07-1.03-0.13c-0.53-0.27-0.96-0.63-1.26-1.13
		c-0.33-0.56-0.53-1.23-0.53-2.05V1.06c0-0.7,0.36-1.06,1.09-1.06h0.93v3.61H175.17z"/>
	<path class="st0" d="M177.95,0h0.89v0.96c0,0.7-0.36,1.06-1.13,1.06h-0.89V1.06C176.86,0.36,177.22,0,177.95,0z M176.86,4.67
		c0-0.7,0.36-1.06,1.13-1.06h0.89v10.11h-0.93c-0.73,0-1.13-0.36-1.13-1.06V4.67H176.86z"/>
	<path class="st0" d="M182.72,4.44c0.89-0.76,1.95-1.13,3.18-1.13s2.32,0.36,3.21,1.13c0.93,0.83,1.42,1.76,1.42,2.88v6.39h-0.89
		c-0.73,0-1.13-0.36-1.13-1.06V7.32c0-0.53-0.23-0.96-0.7-1.36c-0.53-0.43-1.16-0.66-1.92-0.66s-1.39,0.23-1.92,0.66
		c-0.46,0.36-0.7,0.83-0.7,1.36v6.39h-0.89c-0.73,0-1.13-0.36-1.13-1.06V7.32C181.3,6.2,181.76,5.23,182.72,4.44z"/>
	<path class="st0" d="M200.64,4.47c0.99,0.83,1.49,1.82,1.49,3.01v6.13c0,0.63-0.13,1.16-0.36,1.66c-0.5,1.03-1.49,1.66-2.52,1.95
		c-0.53,0.17-1.13,0.23-1.76,0.23c-0.53,0-1.06-0.07-1.56-0.17c-0.46-0.1-0.76-0.27-0.93-0.53c-0.13-0.2-0.13-0.46-0.03-0.83
		l0.17-0.8c0.46,0.2,1.03,0.33,1.76,0.33c0.66,0.03,1.26-0.07,1.76-0.2c0.96-0.27,1.46-0.83,1.46-1.72v-0.4
		c-0.83,0.53-1.76,0.8-2.82,0.8c-1.29,0-2.42-0.4-3.35-1.16c-0.99-0.83-1.49-1.82-1.49-3.01V7.42c0-1.19,0.5-2.22,1.49-3.01
		c0.93-0.76,2.05-1.16,3.35-1.16C198.59,3.31,199.72,3.71,200.64,4.47z M197.33,5.3c-0.83,0-1.49,0.23-2.05,0.73
		c-0.5,0.43-0.76,0.89-0.76,1.46v2.35c0,0.56,0.27,1.06,0.76,1.46c0.56,0.46,1.26,0.7,2.05,0.7s1.49-0.23,2.05-0.7
		c0.5-0.43,0.76-0.89,0.76-1.46V7.49c0-0.56-0.27-1.06-0.76-1.46C198.82,5.53,198.13,5.3,197.33,5.3z"/>
	<path class="st0" d="M205.71,11.46h0.89v1.23c0,0.7-0.36,1.06-1.13,1.06h-0.89v-1.23C204.59,11.83,204.99,11.46,205.71,11.46z"/>
	<path class="st0" d="M208.76,7.32c0-1.13,0.46-2.09,1.42-2.88c0.89-0.76,1.95-1.13,3.18-1.13c1.23,0,2.32,0.36,3.21,1.13
		c0.53,0.46,0.93,0.96,1.16,1.59l-0.86,0.46c-0.53,0.27-0.96,0.17-1.33-0.23c-0.13-0.13-0.2-0.23-0.27-0.27
		c-0.53-0.43-1.16-0.66-1.92-0.66s-1.39,0.23-1.92,0.66c-0.46,0.4-0.7,0.86-0.7,1.36v2.72c0,0.53,0.23,0.96,0.7,1.36
		c0.53,0.43,1.16,0.63,1.92,0.63s1.39-0.23,1.92-0.63c0.07-0.07,0.13-0.13,0.27-0.27c0.36-0.43,0.8-0.5,1.33-0.23l0.86,0.46
		c-0.23,0.63-0.63,1.13-1.16,1.59c-0.89,0.73-1.95,1.13-3.21,1.13c-1.26,0-2.32-0.36-3.18-1.13c-0.96-0.76-1.42-1.76-1.42-2.88V7.32
		z"/>
	<path class="st0" d="M227.38,4.47c0.99,0.83,1.49,1.82,1.49,3.01v2.35c0,1.19-0.5,2.19-1.49,3.01c-0.93,0.76-2.05,1.16-3.35,1.16
		c-1.29,0-2.42-0.4-3.35-1.16c-0.99-0.83-1.49-1.82-1.49-3.01V7.49c0-1.19,0.5-2.22,1.49-3.01c0.93-0.76,2.05-1.16,3.35-1.16
		C225.33,3.31,226.45,3.71,227.38,4.47z M224.07,5.3c-0.83,0-1.49,0.23-2.05,0.73c-0.5,0.43-0.76,0.89-0.76,1.46v2.35
		c0,0.56,0.27,1.06,0.76,1.46c0.56,0.46,1.26,0.7,2.05,0.7c0.83,0,1.49-0.23,2.05-0.7c0.5-0.43,0.76-0.89,0.76-1.46V7.49
		c0-0.56-0.27-1.06-0.76-1.46C225.56,5.53,224.86,5.3,224.07,5.3z"/>
	<path class="st0" d="M242.52,5.83C242.19,5.5,241.69,5.3,241,5.3c-0.63,0-1.13,0.17-1.46,0.56c-0.36,0.43-0.56,0.96-0.56,1.62v6.23
		h-0.89c-0.73,0-1.13-0.36-1.13-1.06V7.49c0-0.66-0.17-1.23-0.56-1.62c-0.36-0.36-0.86-0.56-1.46-0.56c-0.7,0-1.23,0.17-1.52,0.53
		c-0.33,0.36-0.53,0.93-0.53,1.66v6.23h-0.93c-0.73,0-1.13-0.36-1.13-1.06V7.49c0-1.26,0.36-2.29,1.06-3.05
		c0.73-0.76,1.72-1.16,2.98-1.16c1.06,0,1.92,0.33,2.65,0.93c0.1,0.07,0.23,0.2,0.4,0.36c0.13-0.13,0.27-0.27,0.36-0.36
		c0.7-0.63,1.59-0.93,2.65-0.93c1.26,0,2.25,0.36,2.98,1.16c0.73,0.76,1.06,1.76,1.06,3.05v6.23h-0.89c-0.73,0-1.13-0.36-1.13-1.06
		V7.49C243.05,6.76,242.85,6.2,242.52,5.83z"/>
</g>
<g>
	<path class="st0" d="M3.94,7.42c0-0.86-0.07-1.72-1.06-1.72c-0.6,0-0.99,0.23-0.99,0.89c0,0.73,0.46,1.03,1.03,1.39
		c0.6,0.36,1.69,1.09,2.19,1.59c0.63,0.6,0.83,1.19,0.83,2.02c0,1.82-1.23,2.78-2.98,2.78C0.76,14.38,0,13.15,0,11.43v-0.7h1.82
		v0.56c-0.03,0.93,0.23,1.62,1.13,1.62c0.76,0,1.13-0.4,1.13-1.13c0-0.56-0.27-0.96-0.73-1.29C2.42,9.77,1.23,9.24,0.5,8.28
		C0.2,7.85,0.03,7.32,0.03,6.79c0-1.66,0.93-2.55,2.85-2.55c2.88,0,2.82,2.22,2.82,3.18H3.94z"/>
	<path class="st0" d="M7.95,14.15V4.47h1.82v9.71H7.95V14.15z"/>
	<path class="st0" d="M11.4,4.47h6.03V5.9h-2.12v8.28h-1.82V5.9h-2.12L11.4,4.47L11.4,4.47z"/>
	<path class="st0" d="M18.98,14.15V4.47h5.1V5.9h-3.28v2.45h3.01v1.42h-3.01v2.98h3.28v1.42h-5.1V14.15z"/>
	<path class="st0" d="M29.72,14.15V4.47h2.92c0.76,0,1.52,0.07,2.05,0.7c0.4,0.53,0.46,1.09,0.46,1.76c0,0.83-0.17,1.66-1.16,2.02
		v0.03c1.03,0.13,1.42,0.99,1.42,2.25c0,0.4-0.03,0.8-0.13,1.19c-0.4,1.23-1.09,1.76-2.39,1.76L29.72,14.15L29.72,14.15z
		 M31.87,8.38c0.43,0,0.99,0.03,1.29-0.33c0.17-0.23,0.2-0.6,0.2-1.06c0-0.73-0.17-1.09-0.99-1.13h-0.83v2.48h0.33V8.38z
		 M31.91,12.76c0.36,0,0.76,0.03,1.09-0.1c0.5-0.23,0.56-0.86,0.56-1.36c0-1.06-0.2-1.49-1.33-1.49h-0.7v2.95H31.91L31.91,12.76z"/>
	<path class="st0" d="M39.72,7.02c0.2,0.46,0.36,0.96,0.43,1.49h0.03c0.13-0.76,0.36-1.29,0.6-1.82l0.86-2.19h1.99l-2.55,5.57v4.11
		h-1.82v-4.14l-2.52-5.57h1.99L39.72,7.02z"/>
</g>
</svg>
