<?xml version="1.0" encoding="utf-8"?>
<!-- Generator: Adobe Illustrator 23.0.4, SVG Export Plug-In . SVG Version: 6.00 Build 0)  -->
<svg version="1.1" id="Layer_1" xmlns="http://www.w3.org/2000/svg" xmlns:xlink="http://www.w3.org/1999/xlink" x="0px" y="0px"
	 viewBox="0 0 730.19 302.15" style="enable-background:new 0 0 730.19 302.15;" xml:space="preserve">
<style type="text/css">
	.st0{fill:#CDDEEF;}
</style>
<g>
	<path class="st0" d="M461.23,27.22c-3.67,3.17-9.22,2.77-12.39-0.9c-3.17-3.67-2.77-9.22,0.9-12.39c3.67-3.17,9.22-2.77,12.39,0.9
		C465.3,18.5,464.9,24.05,461.23,27.22z"/>
	<circle class="st0" cx="428.51" cy="41.1" r="8.32"/>
	<path class="st0" d="M402.41,60.21c-3.28,2.84-8.25,2.48-11.08-0.81c-2.84-3.28-2.48-8.25,0.81-11.08
		c3.28-2.84,8.25-2.48,11.08,0.81C406.05,52.41,405.69,57.37,402.41,60.21z"/>
	<circle class="st0" cx="363.74" cy="59.21" r="7.4"/>
	<path class="st0" d="M334.56,60.94c-2.9,2.5-7.28,2.19-9.78-0.71c-2.5-2.9-2.19-7.28,0.71-9.78c2.9-2.5,7.28-2.19,9.78,0.71
		C337.77,54.05,337.46,58.43,334.56,60.94z"/>
	<path class="st0" d="M302.47,48.81c-2.7,2.34-6.79,2.04-9.13-0.66c-2.34-2.7-2.04-6.79,0.66-9.13c2.7-2.34,6.79-2.04,9.13,0.66
		C305.47,42.39,305.18,46.48,302.47,48.81z"/>
	<circle class="st0" cx="270.42" cy="24.58" r="6.01"/>
	<path class="st0" d="M513.26,30.95c-2.61,2.26-6.55,1.97-8.81-0.64c-2.26-2.61-1.97-6.55,0.64-8.81c2.61-2.26,6.55-1.97,8.81,0.64
		C516.16,24.75,515.87,28.69,513.26,30.95z"/>
	<circle class="st0" cx="489.75" cy="49.8" r="5.93"/>
	<circle class="st0" cx="466.64" cy="69.79" r="5.62"/>
	<circle class="st0" cx="440.5" cy="85.6" r="5.31"/>
	<path class="st0" d="M415.32,100.52c-2.09,1.81-5.24,1.58-7.05-0.51c-1.81-2.09-1.58-5.24,0.51-7.05s5.24-1.58,7.05,0.51
		C417.64,95.56,417.41,98.72,415.32,100.52z"/>
	<path class="st0" d="M385.2,106.43c-1.96,1.69-4.92,1.48-6.61-0.48s-1.48-4.92,0.48-6.61c1.96-1.69,4.92-1.48,6.61,0.48
		C387.37,101.78,387.16,104.74,385.2,106.43z"/>
	<path class="st0" d="M354.46,107.21c-1.83,1.58-4.59,1.38-6.17-0.45c-1.58-1.83-1.38-4.59,0.45-6.17c1.83-1.58,4.59-1.38,6.17,0.45
		C356.49,102.87,356.29,105.63,354.46,107.21z"/>
	<path class="st0" d="M323.99,102.84c-1.7,1.47-4.26,1.28-5.73-0.42c-1.47-1.7-1.28-4.26,0.42-5.73c1.7-1.47,4.26-1.28,5.73,0.42
		C325.87,98.8,325.68,101.37,323.99,102.84z"/>
	<circle class="st0" cx="292.19" cy="90.59" r="3.75"/>
	<path class="st0" d="M267.28,79.2c-1.44,1.24-3.61,1.08-4.85-0.35c-1.24-1.44-1.08-3.61,0.35-4.85c1.44-1.24,3.61-1.08,4.85,0.35
		C268.88,75.79,268.72,77.96,267.28,79.2z"/>
	<path class="st0" d="M242.69,60.56c-1.3,1.13-3.28,0.98-4.41-0.32c-1.13-1.3-0.98-3.28,0.32-4.41c1.31-1.13,3.28-0.98,4.41,0.32
		C244.14,57.46,244,59.43,242.69,60.56z"/>
	<path class="st0" d="M221.55,38.07c-1.17,1.02-2.95,0.89-3.97-0.29c-1.02-1.17-0.89-2.95,0.29-3.97c1.17-1.02,2.95-0.89,3.97,0.29
		C222.86,35.28,222.73,37.06,221.55,38.07z"/>
	<path class="st0" d="M204.44,12.39c-1.04,0.9-2.62,0.79-3.52-0.26c-0.9-1.04-0.79-2.62,0.26-3.52c1.04-0.9,2.62-0.79,3.52,0.26
		S205.48,11.49,204.44,12.39z"/>
	<circle class="st0" cx="186.7" cy="74.57" r="11.56"/>
	<circle class="st0" cx="169.18" cy="51.57" r="11.33"/>
	<circle class="st0" cx="154.68" cy="26.55" r="11.09"/>
	<circle class="st0" cx="571.19" cy="17.58" r="3.7"/>
	<circle class="st0" cx="557.82" cy="43.21" r="3.47"/>
	<circle class="st0" cx="541.31" cy="66.95" r="3.24"/>
	<circle class="st0" cx="521.96" cy="88.42" r="3"/>
	<circle class="st0" cx="500.08" cy="107.32" r="2.77"/>
	<circle class="st0" cx="476.02" cy="123.36" r="2.54"/>
	<path class="st0" d="M451.65,138c-0.97,0.83-2.43,0.73-3.26-0.24c-0.83-0.97-0.73-2.43,0.24-3.26c0.97-0.83,2.43-0.73,3.26,0.24
		C452.72,135.7,452.62,137.16,451.65,138z"/>
	<circle class="st0" cx="422.83" cy="145.76" r="2.08"/>
	<circle class="st0" cx="394.56" cy="151.76" r="1.85"/>
	<circle class="st0" cx="365.75" cy="154.17" r="1.62"/>
	<path class="st0" d="M337.77,154.01c-0.58,0.5-1.46,0.44-1.96-0.14c-0.5-0.58-0.44-1.46,0.14-1.96c0.58-0.5,1.46-0.44,1.96,0.14
		C338.41,152.64,338.35,153.51,337.77,154.01z"/>
	<path class="st0" d="M309.11,149.04c-0.48,0.42-1.21,0.36-1.63-0.12c-0.42-0.48-0.36-1.21,0.12-1.63s1.21-0.36,1.63,0.12
		C309.64,147.9,309.59,148.63,309.11,149.04z"/>
	<circle class="st0" cx="280.66" cy="139.85" r="0.92"/>
	<circle class="st0" cx="254.24" cy="128.12" r="0.69"/>
	<path class="st0" d="M229.81,113.5c-0.19,0.17-0.49,0.15-0.65-0.05c-0.17-0.19-0.15-0.49,0.05-0.65c0.19-0.17,0.49-0.15,0.65,0.05
		C230.02,113.04,230,113.33,229.81,113.5z"/>
	<circle class="st0" cx="206.86" cy="95.17" r="0.23"/>
	<circle class="st0" cx="546" cy="138.24" r="11.56"/>
	<circle class="st0" cx="522.19" cy="156.73" r="11.36"/>
	<circle class="st0" cx="496.55" cy="172.6" r="11.17"/>
	
		<ellipse transform="matrix(0.8865 -0.4627 0.4627 0.8865 -32.6278 238.2323)" class="st0" cx="469.37" cy="185.63" rx="10.97" ry="10.97"/>
	
		<ellipse transform="matrix(0.0725 -0.9974 0.9974 0.0725 213.8173 621.2874)" class="st0" cx="440.95" cy="195.68" rx="10.77" ry="10.77"/>
	
		<ellipse transform="matrix(0.8515 -0.5244 0.5244 0.8515 -45.1262 245.9314)" class="st0" cx="411.62" cy="202.64" rx="10.58" ry="10.58"/>
	<path class="st0" d="M388.52,214.28c-4.34,3.75-10.89,3.27-14.64-1.06c-3.75-4.34-3.27-10.89,1.06-14.64
		c4.34-3.75,10.89-3.27,14.64,1.06C393.33,203.98,392.85,210.53,388.52,214.28z"/>
	<path class="st0" d="M358.25,214.74c-4.26,3.68-10.69,3.21-14.37-1.04c-3.68-4.26-3.21-10.69,1.04-14.37
		c4.26-3.68,10.69-3.21,14.37,1.04C362.97,204.63,362.51,211.06,358.25,214.74z"/>
	
		<ellipse transform="matrix(0.7565 -0.654 0.654 0.7565 -55.4111 260.0756)" class="st0" cx="321.56" cy="204.45" rx="9.99" ry="9.99"/>
	<path class="st0" d="M298.37,206.12c-4.09,3.54-10.28,3.09-13.81-1c-3.54-4.09-3.09-10.28,1-13.81s10.28-3.09,13.81,1
		C302.91,196.39,302.46,202.58,298.37,206.12z"/>
	<circle class="st0" cx="263.15" cy="189.86" r="9.6"/>
	<path class="st0" d="M241.59,185.1c-3.93,3.4-9.87,2.96-13.26-0.96c-3.4-3.93-2.96-9.87,0.96-13.26c3.93-3.4,9.87-2.96,13.26,0.96
		C245.95,175.77,245.52,181.71,241.59,185.1z"/>
	<circle class="st0" cx="209.16" cy="163.23" r="9.21"/>
	<circle class="st0" cx="184.62" cy="145.73" r="9.01"/>
	<path class="st0" d="M167.84,132.39c-3.68,3.18-9.25,2.78-12.43-0.9s-2.78-9.25,0.9-12.43c3.68-3.18,9.25-2.78,12.43,0.9
		C171.93,123.64,171.52,129.21,167.84,132.39z"/>
	<circle class="st0" cx="141.77" cy="103.44" r="8.62"/>
	<circle class="st0" cx="123.92" cy="79.16" r="8.42"/>
	<circle class="st0" cx="108.74" cy="53.11" r="8.23"/>
	<circle class="st0" cx="96.44" cy="25.59" r="8.03"/>
	<path class="st0" d="M629.78,15.35c-0.41,0.35-1.03,0.31-1.38-0.1c-0.35-0.41-0.31-1.03,0.1-1.38c0.41-0.35,1.03-0.31,1.38,0.1
		C630.23,14.38,630.19,14.99,629.78,15.35z"/>
	<path class="st0" d="M618.53,43.21c-0.33,0.28-0.82,0.25-1.11-0.08s-0.25-0.82,0.08-1.11c0.33-0.28,0.82-0.25,1.11,0.08
		S618.86,42.93,618.53,43.21z"/>
	<path class="st0" d="M604.35,69.73c-0.25,0.21-0.62,0.19-0.83-0.06c-0.21-0.25-0.19-0.62,0.06-0.83c0.25-0.21,0.62-0.19,0.83,0.06
		S604.59,69.52,604.35,69.73z"/>
	<circle class="st0" cx="587.14" cy="94.3" r="0.39"/>
	<circle class="st0" cx="567.73" cy="117.36" r="0.2"/>
	<path class="st0" d="M685.71,26.05c-4.06,3.51-10.19,3.06-13.7-1s-3.06-10.19,1-13.7c4.06-3.51,10.19-3.06,13.7,1
		C690.22,16.4,689.77,22.54,685.71,26.05z"/>
	<circle class="st0" cx="669.46" cy="47.28" r="9.55"/>
	<path class="st0" d="M663.13,81.94c-3.92,3.39-9.84,2.96-13.23-0.96c-3.39-3.92-2.96-9.84,0.96-13.23
		c3.92-3.39,9.84-2.96,13.23,0.96C667.48,72.63,667.05,78.55,663.13,81.94z"/>
	<circle class="st0" cx="642.06" cy="101.14" r="9.21"/>
	<path class="st0" d="M630.69,132.81c-3.78,3.27-9.49,2.85-12.76-0.93s-2.85-9.49,0.93-12.76c3.78-3.27,9.49-2.85,12.76,0.93
		C634.88,123.83,634.46,129.54,630.69,132.81z"/>
	<path class="st0" d="M611.1,155.82c-3.71,3.21-9.31,2.8-12.52-0.91c-3.21-3.71-2.8-9.31,0.91-12.52c3.71-3.21,9.31-2.8,12.52,0.91
		C615.21,147.01,614.81,152.61,611.1,155.82z"/>
	<path class="st0" d="M589.49,176.97c-3.64,3.15-9.14,2.75-12.28-0.89c-3.15-3.64-2.75-9.14,0.89-12.28
		c3.64-3.15,9.14-2.75,12.28,0.89C593.52,168.33,593.12,173.83,589.49,176.97z"/>
	<path class="st0" d="M566.06,196.11c-3.57,3.09-8.96,2.69-12.05-0.88s-2.69-8.96,0.88-12.05c3.57-3.09,8.96-2.69,12.05,0.88
		C570.02,187.63,569.63,193.03,566.06,196.11z"/>
	<circle class="st0" cx="535.51" cy="206.74" r="8.37"/>
	<path class="st0" d="M514.46,227.69c-3.43,2.96-8.61,2.59-11.58-0.84c-2.96-3.43-2.59-8.61,0.84-11.58s8.61-2.59,11.58,0.84
		C518.26,219.54,517.89,224.72,514.46,227.69z"/>
	<path class="st0" d="M486.69,239.82c-3.36,2.9-8.44,2.53-11.34-0.82c-2.9-3.36-2.53-8.44,0.82-11.34c3.36-2.9,8.44-2.53,11.34,0.82
		C490.42,231.84,490.05,236.91,486.69,239.82z"/>
	<path class="st0" d="M457.92,249.36c-3.29,2.84-8.26,2.48-11.1-0.81c-2.84-3.29-2.48-8.26,0.81-11.1c3.29-2.84,8.26-2.48,11.1,0.81
		C461.57,241.55,461.21,246.52,457.92,249.36z"/>
	<circle class="st0" cx="423.35" cy="250.42" r="7.7"/>
	<circle class="st0" cx="393.42" cy="254.73" r="7.54"/>
	<path class="st0" d="M368.03,261.87c-3.08,2.66-7.73,2.32-10.39-0.76c-2.66-3.08-2.32-7.73,0.76-10.39
		c3.08-2.66,7.73-2.32,10.39,0.76C371.45,254.56,371.11,259.21,368.03,261.87z"/>
	<circle class="st0" cx="332.98" cy="255.13" r="7.2"/>
	<path class="st0" d="M307.59,256.56c-2.94,2.54-7.38,2.22-9.92-0.72c-2.54-2.94-2.22-7.38,0.72-9.92c2.94-2.54,7.38-2.22,9.92,0.72
		C310.85,249.58,310.53,254.02,307.59,256.56z"/>
	<path class="st0" d="M277.96,249.84c-2.87,2.48-7.21,2.17-9.69-0.7c-2.48-2.87-2.17-7.21,0.7-9.69c2.87-2.48,7.21-2.17,9.69,0.7
		C281.14,243.02,280.82,247.36,277.96,249.84z"/>
	<path class="st0" d="M249.05,240.47c-2.8,2.42-7.03,2.11-9.45-0.69c-2.42-2.8-2.11-7.03,0.69-9.45c2.8-2.42,7.03-2.11,9.45,0.69
		C252.15,233.82,251.84,238.05,249.05,240.47z"/>
	<path class="st0" d="M221.1,228.51c-2.73,2.36-6.85,2.06-9.21-0.67c-2.36-2.73-2.06-6.85,0.67-9.21c2.73-2.36,6.85-2.06,9.21,0.67
		C224.13,222.03,223.83,226.15,221.1,228.51z"/>
	<circle class="st0" cx="190.19" cy="209.24" r="6.36"/>
	<path class="st0" d="M169.02,197.22c-2.59,2.24-6.5,1.95-8.74-0.64c-2.24-2.59-1.95-6.5,0.64-8.74s6.5-1.95,8.74,0.64
		C171.9,191.07,171.61,194.98,169.02,197.22z"/>
	<path class="st0" d="M145.34,178.15c-2.52,2.18-6.33,1.9-8.5-0.62c-2.18-2.52-1.9-6.33,0.62-8.5s6.33-1.9,8.5,0.62
		C148.13,172.16,147.86,175.97,145.34,178.15z"/>
	<path class="st0" d="M123.47,157.01c-2.45,2.12-6.15,1.85-8.27-0.6c-2.12-2.45-1.85-6.15,0.6-8.27c2.45-2.12,6.15-1.85,8.27,0.6
		C126.19,151.19,125.92,154.89,123.47,157.01z"/>
	<path class="st0" d="M103.57,134c-2.38,2.06-5.98,1.8-8.03-0.58c-2.06-2.38-1.8-5.98,0.58-8.03c2.38-2.06,5.98-1.8,8.03,0.58
		C106.21,128.35,105.95,131.94,103.57,134z"/>
	<circle class="st0" cx="82.2" cy="105.12" r="5.53"/>
	<path class="st0" d="M70.36,83.1c-2.24,1.94-5.62,1.69-7.56-0.55s-1.69-5.62,0.55-7.56c2.24-1.94,5.62-1.69,7.56,0.55
		C72.85,77.78,72.6,81.17,70.36,83.1z"/>
	<circle class="st0" cx="53.97" cy="51.68" r="5.19"/>
	<path class="st0" d="M46.92,27.05c-2.1,1.81-5.27,1.58-7.09-0.52c-1.81-2.1-1.58-5.27,0.52-7.09c2.1-1.81,5.27-1.58,7.09,0.52
		S49.02,25.24,46.92,27.05z"/>
	<circle class="st0" cx="723.28" cy="15.02" r="6.9"/>
	<path class="st0" d="M719.11,49.38c-2.82,2.44-7.09,2.13-9.53-0.69s-2.13-7.09,0.69-9.53c2.82-2.44,7.09-2.13,9.53,0.69
		C722.24,42.67,721.93,46.94,719.11,49.38z"/>
	<path class="st0" d="M708.06,77.71c-2.76,2.39-6.93,2.08-9.31-0.68c-2.39-2.76-2.08-6.93,0.68-9.31c2.76-2.39,6.93-2.08,9.31,0.68
		C711.12,71.16,710.82,75.33,708.06,77.71z"/>
	<path class="st0" d="M694.71,105.06c-2.7,2.33-6.77,2.03-9.1-0.66c-2.33-2.7-2.03-6.77,0.66-9.1c2.7-2.33,6.77-2.03,9.1,0.66
		C697.71,98.65,697.41,102.73,694.71,105.06z"/>
	<circle class="st0" cx="675.04" cy="126.46" r="6.3"/>
	<path class="st0" d="M661.5,156.03c-2.57,2.22-6.46,1.94-8.68-0.63c-2.22-2.57-1.94-6.46,0.63-8.68s6.46-1.94,8.68,0.63
		C664.36,149.92,664.08,153.81,661.5,156.03z"/>
	<path class="st0" d="M641.87,179.31c-2.51,2.17-6.3,1.89-8.47-0.62c-2.17-2.51-1.89-6.3,0.62-8.47c2.51-2.17,6.3-1.89,8.47,0.62
		C644.65,173.35,644.37,177.15,641.87,179.31z"/>
	<path class="st0" d="M620.38,200.93c-2.45,2.11-6.14,1.85-8.26-0.6s-1.85-6.14,0.6-8.26c2.45-2.11,6.14-1.85,8.26,0.6
		C623.1,195.12,622.83,198.82,620.38,200.93z"/>
	<path class="st0" d="M597.22,220.76c-2.38,2.06-5.98,1.8-8.04-0.58c-2.06-2.38-1.8-5.98,0.58-8.04c2.38-2.06,5.98-1.8,8.04,0.58
		C599.87,215.1,599.6,218.7,597.22,220.76z"/>
	<path class="st0" d="M572.53,238.67c-2.32,2.01-5.83,1.75-7.83-0.57c-2.01-2.32-1.75-5.83,0.57-7.83c2.32-2.01,5.83-1.75,7.83,0.57
		C575.11,233.15,574.85,236.66,572.53,238.67z"/>
	<path class="st0" d="M546.45,254.51c-2.26,1.95-5.67,1.7-7.62-0.55c-1.95-2.26-1.7-5.67,0.55-7.62c2.26-1.95,5.67-1.7,7.62,0.55
		C548.96,249.15,548.71,252.56,546.45,254.51z"/>
	<path class="st0" d="M519.16,268.18c-2.19,1.9-5.51,1.66-7.41-0.54c-1.9-2.19-1.66-5.51,0.54-7.41c2.19-1.9,5.51-1.66,7.41,0.54
		S521.35,266.28,519.16,268.18z"/>
	<path class="st0" d="M490.82,279.56c-2.13,1.84-5.35,1.61-7.2-0.52c-1.84-2.13-1.61-5.35,0.52-7.2c2.13-1.84,5.35-1.61,7.2,0.52
		C493.19,274.49,492.95,277.72,490.82,279.56z"/>
	<path class="st0" d="M461.64,288.58c-2.07,1.79-5.2,1.56-6.99-0.51c-1.79-2.07-1.56-5.2,0.51-6.99c2.07-1.79,5.2-1.56,6.99,0.51
		C463.94,283.67,463.71,286.79,461.64,288.58z"/>
	<path class="st0" d="M431.81,295.2c-2.01,1.73-5.04,1.51-6.77-0.49c-1.73-2.01-1.51-5.04,0.49-6.77c2.01-1.73,5.04-1.51,6.77,0.49
		C434.04,290.43,433.82,293.46,431.81,295.2z"/>
	<path class="st0" d="M401.53,299.36c-1.94,1.68-4.88,1.47-6.56-0.48c-1.68-1.94-1.47-4.88,0.48-6.56c1.94-1.68,4.88-1.47,6.56,0.48
		C403.69,294.74,403.48,297.68,401.53,299.36z"/>
	<circle class="st0" cx="368.06" cy="297.65" r="4.5"/>
	<path class="st0" d="M340.43,300.28c-1.82,1.57-4.57,1.37-6.14-0.45c-1.57-1.82-1.37-4.57,0.45-6.14s4.57-1.37,6.14,0.45
		C342.45,295.96,342.25,298.71,340.43,300.28z"/>
	<path class="st0" d="M310,297.04c-1.76,1.52-4.41,1.32-5.93-0.43c-1.52-1.76-1.33-4.41,0.43-5.93c1.76-1.52,4.41-1.32,5.93,0.43
		S311.76,295.52,310,297.04z"/>
	<path class="st0" d="M279.94,291.34c-1.69,1.46-4.25,1.28-5.72-0.42c-1.46-1.69-1.28-4.25,0.42-5.72c1.69-1.46,4.25-1.28,5.72,0.42
		C281.81,287.32,281.63,289.88,279.94,291.34z"/>
	<circle class="st0" cx="247.87" cy="280.28" r="3.9"/>
	<circle class="st0" cx="219.2" cy="269.92" r="3.75"/>
	<circle class="st0" cx="191.47" cy="257.24" r="3.6"/>
	<circle class="st0" cx="164.88" cy="242.33" r="3.45"/>
	<circle class="st0" cx="139.6" cy="225.29" r="3.3"/>
	<circle class="st0" cx="115.81" cy="206.23" r="3.15"/>
	<path class="st0" d="M95.62,187.57c-1.25,1.08-3.15,0.95-4.23-0.31s-0.95-3.15,0.31-4.23c1.25-1.08,3.15-0.95,4.23,0.31
		C97.01,184.59,96.87,186.49,95.62,187.57z"/>
	<path class="st0" d="M75.12,164.8c-1.19,1.03-2.99,0.9-4.02-0.29c-1.03-1.19-0.9-2.99,0.29-4.02c1.19-1.03,2.99-0.9,4.02,0.29
		C76.44,161.97,76.31,163.77,75.12,164.8z"/>
	<path class="st0" d="M56.5,140.47c-1.13,0.98-2.83,0.85-3.81-0.28c-0.98-1.13-0.85-2.83,0.28-3.81c1.13-0.98,2.83-0.85,3.81,0.28
		C57.76,137.79,57.63,139.49,56.5,140.47z"/>
	<path class="st0" d="M39.92,114.71c-1.07,0.92-2.68,0.8-3.6-0.26c-0.92-1.07-0.8-2.68,0.26-3.6c1.07-0.92,2.68-0.8,3.6,0.26
		C41.1,112.17,40.98,113.79,39.92,114.71z"/>
	<path class="st0" d="M25.48,87.68c-1,0.87-2.52,0.76-3.39-0.25s-0.76-2.52,0.25-3.39s2.52-0.76,3.39,0.25S26.49,86.82,25.48,87.68z
		"/>
	<circle class="st0" cx="11.84" cy="57.87" r="2.25"/>
	<path class="st0" d="M3.48,30.57c-0.88,0.76-2.2,0.66-2.96-0.22c-0.76-0.88-0.66-2.2,0.22-2.96c0.88-0.76,2.2-0.66,2.96,0.22
		C4.45,28.49,4.35,29.82,3.48,30.57z"/>
	<g>
		<path class="st0" d="M469.55,0.07c3.34,3.86,9.18,4.29,13.04,0.95c0.36-0.31,0.69-0.66,0.99-1.01H469.5
			C469.52,0.02,469.53,0.04,469.55,0.07z"/>
		<path class="st0" d="M244.05,2.56c2,2.32,5.51,2.57,7.82,0.57c0.97-0.84,1.56-1.95,1.79-3.13h-10.84
			C243.01,0.92,243.4,1.8,244.05,2.56z"/>
		<path class="st0" d="M519.35,3.98c2.37,2.74,6.51,3.04,9.25,0.67c1.41-1.22,2.17-2.92,2.26-4.65h-13.09
			C517.83,1.42,518.35,2.82,519.35,3.98z"/>
		<path class="st0" d="M135.23,7.01c3.92,4.54,10.78,5.04,15.32,1.11C153.02,6,154.28,3.01,154.3,0H132.6
			C132.61,2.49,133.48,4.98,135.23,7.01z"/>
		<path class="st0" d="M81.23,2.03c2.83,3.27,7.78,3.63,11.05,0.8c0.93-0.8,1.61-1.78,2.07-2.84H79.96
			C80.27,0.72,80.69,1.41,81.23,2.03z"/>
	</g>
</g>
</svg>
