<?xml version="1.0" encoding="utf-8"?>
<!-- Generator: Adobe Illustrator 23.0.4, SVG Export Plug-In . SVG Version: 6.00 Build 0)  -->
<svg version="1.1" id="_x2014_ÎÓÈ_x5F_1" xmlns="http://www.w3.org/2000/svg" xmlns:xlink="http://www.w3.org/1999/xlink"
	 x="0px" y="0px" viewBox="0 0 466.4 448.61" style="enable-background:new 0 0 466.4 448.61;" xml:space="preserve">
<style type="text/css">
	.st0{fill:#CCDEEF;}
</style>
<g>
	<g>
		<g>
			
				<ellipse transform="matrix(0.709 -0.7052 0.7052 0.709 7.5982 374.8164)" class="st0" cx="457.94" cy="178.2" rx="8.47" ry="8.45"/>
			<path class="st0" d="M432.81,199.46c-3.13,3.12-8.19,3.11-11.3-0.01c-3.11-3.12-3.09-8.18,0.05-11.3
				c3.13-3.12,8.19-3.11,11.3,0.01C435.96,191.29,435.94,196.34,432.81,199.46z"/>
			
				<ellipse transform="matrix(0.709 -0.7052 0.7052 0.709 -27.3975 336.0955)" class="st0" cx="393.53" cy="201.24" rx="7.53" ry="7.51"/>
			<path class="st0" d="M364.06,205.11c-2.76,2.75-7.23,2.74-9.97-0.01c-2.74-2.76-2.72-7.22,0.04-9.97
				c2.76-2.75,7.23-2.74,9.97,0.01C366.84,197.9,366.83,202.36,364.06,205.11z"/>
			<path class="st0" d="M330.68,195.14c-2.58,2.57-6.74,2.56-9.3-0.01c-2.56-2.57-2.54-6.74,0.04-9.3c2.58-2.57,6.74-2.56,9.3,0.01
				C333.28,188.41,333.26,192.57,330.68,195.14z"/>
			
				<ellipse transform="matrix(0.709 -0.7052 0.7052 0.709 -35.641 259.411)" class="st0" cx="296.49" cy="172.89" rx="6.12" ry="6.1"/>
			<path class="st0" d="M276.2,152.49c-2.21,2.2-5.78,2.19-7.97-0.01c-2.19-2.2-2.18-5.77,0.03-7.97c2.21-2.2,5.78-2.19,7.97,0.01
				C278.43,146.72,278.41,150.29,276.2,152.49z"/>
			<path class="st0" d="M258.44,122.48c-2.03,2.02-5.3,2.01-7.31-0.01c-2.01-2.02-2-5.29,0.03-7.31c2.03-2.02,5.3-2.01,7.31,0.01
				C260.48,117.19,260.47,120.47,258.44,122.48z"/>
			<path class="st0" d="M248.66,89.05c-1.84,1.83-4.82,1.83-6.64-0.01c-1.83-1.84-1.82-4.81,0.03-6.64s4.82-1.83,6.64,0.01
				C250.52,84.24,250.51,87.22,248.66,89.05z"/>
			
				<ellipse transform="matrix(0.709 -0.7052 0.7052 0.709 34.9615 187.3021)" class="st0" cx="244.42" cy="51.29" rx="4.23" ry="4.22"/>
			<path class="st0" d="M254.7,20.34c-1.47,1.47-3.85,1.46-5.32-0.01c-1.46-1.47-1.45-3.85,0.02-5.32c1.47-1.47,3.85-1.46,5.32,0.01
				C256.18,16.49,256.17,18.87,254.7,20.34z"/>
		</g>
		<g>
			<path class="st0" d="M448.71,239.39c-1.99,1.98-5.21,1.98-7.18-0.01c-1.98-1.99-1.96-5.2,0.03-7.18
				c1.99-1.98,5.21-1.98,7.18,0.01C450.71,234.19,450.7,237.41,448.71,239.39z"/>
			<path class="st0" d="M418.57,247.56c-1.87,1.86-4.88,1.85-6.73-0.01c-1.85-1.86-1.84-4.88,0.03-6.73
				c1.87-1.86,4.88-1.85,6.73,0.01C420.45,242.69,420.44,245.71,418.57,247.56z"/>
			<path class="st0" d="M387.46,250.57c-1.74,1.73-4.56,1.73-6.29-0.01s-1.72-4.55,0.03-6.29s4.56-1.73,6.29,0.01
				C389.22,246.03,389.21,248.84,387.46,250.57z"/>
			<path class="st0" d="M356.26,248.35c-1.62,1.61-4.23,1.61-5.84-0.01c-1.61-1.61-1.59-4.23,0.02-5.84
				c1.62-1.61,4.23-1.61,5.84,0.01C357.89,244.12,357.88,246.74,356.26,248.35z"/>
			
				<ellipse transform="matrix(0.709 -0.7052 0.7052 0.709 -73.957 297.2418)" class="st0" cx="323.17" cy="238.23" rx="3.81" ry="3.8"/>
			<path class="st0" d="M297.12,228.49c-1.37,1.36-3.58,1.36-4.94-0.01c-1.36-1.37-1.35-3.58,0.02-4.94
				c1.37-1.36,3.58-1.36,4.94,0.01C298.5,224.92,298.49,227.13,297.12,228.49z"/>
			<path class="st0" d="M270.89,211.37c-1.24,1.24-3.25,1.24-4.49-0.01c-1.23-1.24-1.23-3.25,0.02-4.49
				c1.24-1.24,3.25-1.24,4.49,0.01C272.14,208.13,272.13,210.14,270.89,211.37z"/>
			<path class="st0" d="M247.89,190.1c-1.12,1.11-2.93,1.11-4.04-0.01c-1.11-1.12-1.1-2.93,0.02-4.04s2.93-1.11,4.04,0.01
				C249.01,187.18,249.01,188.99,247.89,190.1z"/>
			<path class="st0" d="M228.74,165.31c-1,0.99-2.6,0.99-3.59,0c-0.99-0.99-0.98-2.6,0.01-3.59s2.6-0.99,3.59,0
				C229.75,162.71,229.74,164.32,228.74,165.31z"/>
			<path class="st0" d="M214.05,137.65c-0.87,0.87-2.28,0.86-3.14,0s-0.86-2.28,0.01-3.14c0.87-0.87,2.28-0.86,3.14,0
				C214.93,135.38,214.93,136.79,214.05,137.65z"/>
			<path class="st0" d="M204.25,107.92c-0.75,0.74-1.95,0.74-2.69,0c-0.74-0.74-0.74-1.95,0.01-2.69c0.75-0.74,1.95-0.74,2.69,0
				C205,105.98,205,107.18,204.25,107.92z"/>
			<path class="st0" d="M199.57,76.98c-0.62,0.62-1.63,0.62-2.24,0c-0.62-0.62-0.61-1.63,0.01-2.24c0.62-0.62,1.63-0.62,2.24,0
				C200.2,75.36,200.19,76.37,199.57,76.98z"/>
			<path class="st0" d="M200.12,45.72c-0.5,0.5-1.3,0.49-1.8,0c-0.49-0.5-0.49-1.3,0.01-1.8c0.5-0.5,1.3-0.49,1.8,0
				C200.63,44.42,200.62,45.22,200.12,45.72z"/>
			<path class="st0" d="M205.89,15.01c-0.37,0.37-0.98,0.37-1.35,0c-0.37-0.37-0.37-0.98,0.01-1.35c0.37-0.37,0.98-0.37,1.35,0
				C206.27,14.04,206.26,14.64,205.89,15.01z"/>
		</g>
		<g>
			
				<ellipse transform="matrix(0.709 -0.7052 0.7052 0.709 -99.346 218.5156)" class="st0" cx="215.09" cy="229.63" rx="11.76" ry="11.73"/>
			
				<ellipse transform="matrix(0.709 -0.7052 0.7052 0.709 -89.4306 198.4438)" class="st0" cx="195.73" cy="207.58" rx="11.53" ry="11.5"/>
			
				<ellipse transform="matrix(0.709 -0.7052 0.7052 0.709 -77.0723 179.7697)" class="st0" cx="179.28" cy="183.27" rx="11.29" ry="11.26"/>
			
				<ellipse transform="matrix(0.709 -0.7052 0.7052 0.709 -62.4506 162.8088)" class="st0" cx="166.04" cy="157.07" rx="11.06" ry="11.03"/>
			
				<ellipse transform="matrix(0.709 -0.7052 0.7052 0.709 -45.7997 147.8303)" class="st0" cx="156.22" cy="129.41" rx="10.82" ry="10.79"/>
			<path class="st0" d="M157.4,108.21c-4.14,4.12-10.84,4.11-14.95-0.02c-4.11-4.13-4.09-10.83,0.06-14.95
				c4.14-4.12,10.84-4.11,14.95,0.02C161.57,97.39,161.54,104.09,157.4,108.21z"/>
			
				<ellipse transform="matrix(0.709 -0.7052 0.7052 0.709 -7.5272 124.6926)" class="st0" cx="147.32" cy="71.47" rx="10.35" ry="10.32"/>
			
				<ellipse transform="matrix(0.709 -0.7052 0.7052 0.709 13.4852 116.8768)" class="st0" cx="148.36" cy="42.1" rx="10.11" ry="10.09"/>
			
				<ellipse transform="matrix(0.709 -0.7052 0.7052 0.709 35.3152 111.7405)" class="st0" cx="153.05" cy="13.08" rx="9.88" ry="9.85"/>
			
				<ellipse transform="matrix(0.709 -0.7052 0.7052 0.709 -67.0669 406.8943)" class="st0" cx="459.48" cy="284.71" rx="2.12" ry="2.11"/>
			
				<ellipse transform="matrix(0.709 -0.7052 0.7052 0.709 -81.0214 389.3329)" class="st0" cx="431.22" cy="292.84" rx="1.88" ry="1.88"/>
			
				<ellipse transform="matrix(0.709 -0.7052 0.7052 0.709 -92.6668 370.1671)" class="st0" cx="402.18" cy="297.36" rx="1.65" ry="1.64"/>
			<path class="st0" d="M373.8,299.23c-0.55,0.55-1.45,0.55-1.99,0c-0.55-0.55-0.54-1.44,0.01-1.99c0.55-0.55,1.44-0.55,1.99,0
				C374.35,297.79,374.35,298.68,373.8,299.23z"/>
			<path class="st0" d="M344.39,296.27c-0.46,0.46-1.2,0.46-1.66,0c-0.46-0.46-0.45-1.2,0.01-1.66s1.2-0.46,1.66,0
				C344.85,295.06,344.85,295.81,344.39,296.27z"/>
			
				<ellipse transform="matrix(0.709 -0.7052 0.7052 0.709 -112.1695 306.1904)" class="st0" cx="314.91" cy="289" rx="0.94" ry="0.94"/>
			
				<ellipse transform="matrix(0.709 -0.7052 0.7052 0.709 -113.1655 283.8152)" class="st0" cx="287.3" cy="279.02" rx="0.71" ry="0.7"/>
			<path class="st0" d="M261.51,265.97c-0.18,0.18-0.48,0.18-0.66,0c-0.18-0.18-0.18-0.48,0-0.66s0.48-0.18,0.66,0
				C261.7,265.49,261.69,265.78,261.51,265.97z"/>
			
				<ellipse transform="matrix(0.709 -0.7052 0.7052 0.709 -106.6786 239.6006)" class="st0" cx="236.97" cy="249.06" rx="0.24" ry="0.23"/>
		</g>
		<g>
			
				<ellipse transform="matrix(0.7094 -0.7048 0.7048 0.7094 -110.5026 418.3325)" class="st0" cx="452.07" cy="343.17" rx="10.76" ry="10.74"/>
			<path class="st0" d="M429.45,356.65c-4.14,4.12-10.82,4.11-14.92-0.02c-4.1-4.13-4.08-10.81,0.06-14.92
				c4.14-4.12,10.82-4.11,14.92,0.02C433.61,345.86,433.59,352.54,429.45,356.65z"/>
			<path class="st0" d="M398.79,359.31c-4.06,4.04-10.61,4.03-14.64-0.02c-4.03-4.05-4-10.6,0.06-14.64
				c4.06-4.04,10.61-4.03,14.64,0.02C402.88,348.72,402.85,355.27,398.79,359.31z"/>
			
				<ellipse transform="matrix(0.709 -0.7052 0.7052 0.709 -142.8909 356.8035)" class="st0" cx="360.87" cy="351.53" rx="10.17" ry="10.14"/>
			<path class="st0" d="M337.48,354.9c-3.9,3.88-10.21,3.87-14.08-0.02c-3.87-3.89-3.85-10.19,0.06-14.08
				c3.9-3.88,10.21-3.87,14.08,0.02C341.41,344.72,341.38,351.02,337.48,354.9z"/>
			
				<ellipse transform="matrix(0.709 -0.7052 0.7052 0.709 -152.9692 311.2477)" class="st0" cx="300.63" cy="340.97" rx="9.77" ry="9.74"/>
			<path class="st0" d="M278.44,337.71c-3.75,3.73-9.8,3.72-13.51-0.02c-3.72-3.74-3.69-9.79,0.05-13.51
				c3.75-3.73,9.8-3.72,13.51,0.02C282.21,327.93,282.19,333.98,278.44,337.71z"/>
			
				<ellipse transform="matrix(0.709 -0.7052 0.7052 0.709 -153.1566 264.6146)" class="st0" cx="244.04" cy="317.88" rx="9.37" ry="9.34"/>
			
				<ellipse transform="matrix(0.709 -0.7052 0.7052 0.709 -149.5015 241.5582)" class="st0" cx="217.93" cy="301.92" rx="9.17" ry="9.15"/>
			<path class="st0" d="M199.99,289.61c-3.51,3.49-9.18,3.49-12.67-0.02c-3.48-3.5-3.46-9.18,0.05-12.67
				c3.51-3.49,9.18-3.49,12.67,0.02C203.53,280.44,203.5,286.11,199.99,289.61z"/>
			
				<ellipse transform="matrix(0.709 -0.7052 0.7052 0.709 -134.9531 197.2709)" class="st0" cx="171.54" cy="262.15" rx="8.77" ry="8.75"/>
			
				<ellipse transform="matrix(0.709 -0.7052 0.7052 0.709 -124.2626 176.5214)" class="st0" cx="151.75" cy="238.82" rx="8.57" ry="8.55"/>
			
				<ellipse transform="matrix(0.709 -0.7052 0.7052 0.709 -111.4198 157.0239)" class="st0" cx="134.55" cy="213.51" rx="8.37" ry="8.35"/>
			
				<ellipse transform="matrix(0.709 -0.7052 0.7052 0.709 -96.5595 139.0164)" class="st0" cx="120.16" cy="186.5" rx="8.17" ry="8.15"/>
			<path class="st0" d="M114.36,163.74c-3.12,3.11-8.16,3.1-11.26-0.01c-3.1-3.11-3.08-8.16,0.05-11.26
				c3.12-3.11,8.16-3.1,11.26,0.01C117.5,155.59,117.48,160.64,114.36,163.74z"/>
			<path class="st0" d="M105.91,134.14c-3.04,3.03-7.96,3.02-10.98-0.01c-3.02-3.04-3-7.95,0.04-10.98
				c3.04-3.03,7.96-3.02,10.98,0.01C108.97,126.19,108.95,131.11,105.91,134.14z"/>
			<path class="st0" d="M100.64,103.81c-2.97,2.95-7.76,2.94-10.7-0.01c-2.94-2.96-2.92-7.75,0.04-10.7
				c2.97-2.95,7.76-2.94,10.7,0.01C103.63,96.07,103.61,100.86,100.64,103.81z"/>
			<path class="st0" d="M98.6,73.1c-2.89,2.87-7.55,2.87-10.42-0.01c-2.87-2.88-2.85-7.54,0.04-10.42
				c2.89-2.87,7.55-2.87,10.42,0.01C101.5,65.56,101.49,70.22,98.6,73.1z"/>
			<path class="st0" d="M99.8,42.35c-2.81,2.8-7.35,2.79-10.14-0.01c-2.79-2.8-2.77-7.34,0.04-10.14c2.81-2.8,7.35-2.79,10.14,0.01
				C102.62,35.01,102.61,39.55,99.8,42.35z"/>
			<path class="st0" d="M104.23,11.9c-2.73,2.72-7.14,2.71-9.85-0.01c-2.71-2.72-2.69-7.14,0.04-9.85s7.14-2.71,9.85,0.01
				C106.98,4.77,106.96,9.18,104.23,11.9z"/>
		</g>
		<g>
			
				<ellipse transform="matrix(0.709 -0.7052 0.7052 0.709 -152.9433 423.9762)" class="st0" cx="437.23" cy="397.3" rx="7.67" ry="7.65"/>
			<path class="st0" d="M411.99,406.38c-2.94,2.92-7.68,2.92-10.59-0.01c-2.91-2.93-2.89-7.67,0.04-10.59
				c2.94-2.92,7.68-2.92,10.59,0.01C414.94,398.72,414.93,403.46,411.99,406.38z"/>
			
				<ellipse transform="matrix(0.709 -0.7052 0.7052 0.709 -174.1432 382.1739)" class="st0" cx="375.98" cy="402.09" rx="7.33" ry="7.31"/>
			<path class="st0" d="M350.33,405.37c-2.8,2.79-7.33,2.78-10.11-0.01c-2.78-2.8-2.76-7.32,0.04-10.11
				c2.8-2.79,7.33-2.78,10.11,0.01S353.14,402.58,350.33,405.37z"/>
			<path class="st0" d="M319.82,400.7c-2.74,2.72-7.16,2.72-9.87-0.01c-2.71-2.73-2.7-7.15,0.04-9.87c2.74-2.72,7.16-2.72,9.87,0.01
				C322.58,393.56,322.56,397.98,319.82,400.7z"/>
			<path class="st0" d="M289.85,393.29c-2.67,2.66-6.98,2.65-9.63-0.01c-2.65-2.66-2.63-6.97,0.04-9.63
				c2.67-2.66,6.98-2.65,9.63,0.01C292.54,386.33,292.52,390.64,289.85,393.29z"/>
			<path class="st0" d="M260.68,383.19c-2.6,2.59-6.81,2.58-9.39-0.01c-2.58-2.6-2.57-6.8,0.04-9.39c2.6-2.59,6.81-2.58,9.39,0.01
				C263.3,376.4,263.29,380.6,260.68,383.19z"/>
			
				<ellipse transform="matrix(0.709 -0.7052 0.7052 0.709 -191.6886 267.2779)" class="st0" cx="228" cy="365.9" rx="6.48" ry="6.46"/>
			<path class="st0" d="M205.71,355.24c-2.47,2.46-6.46,2.45-8.91-0.01c-2.45-2.46-2.43-6.45,0.04-8.91
				c2.47-2.46,6.46-2.45,8.91,0.01C208.19,348.8,208.18,352.78,205.71,355.24z"/>
			<path class="st0" d="M180.36,337.62c-2.4,2.39-6.28,2.38-8.67-0.01c-2.38-2.4-2.37-6.28,0.03-8.67s6.28-2.38,8.67,0.01
				C182.78,331.35,182.76,335.23,180.36,337.62z"/>
			<path class="st0" d="M156.72,317.78c-2.34,2.32-6.11,2.32-8.43-0.01c-2.32-2.33-2.3-6.1,0.03-8.43c2.34-2.32,6.11-2.32,8.43,0.01
				C159.07,311.68,159.05,315.45,156.72,317.78z"/>
			<path class="st0" d="M134.94,295.89c-2.27,2.26-5.93,2.25-8.19-0.01c-2.25-2.26-2.24-5.93,0.03-8.18
				c2.27-2.26,5.93-2.25,8.18,0.01C137.22,289.97,137.21,293.63,134.94,295.89z"/>
			
				<ellipse transform="matrix(0.709 -0.7052 0.7052 0.709 -156.7388 156.5064)" class="st0" cx="111.26" cy="268.16" rx="5.63" ry="5.61"/>
			<path class="st0" d="M97.72,246.7c-2.14,2.12-5.58,2.12-7.7-0.01c-2.12-2.13-2.1-5.58,0.03-7.7c2.14-2.12,5.58-2.12,7.7,0.01
				C99.87,241.13,99.86,244.57,97.72,246.7z"/>
			
				<ellipse transform="matrix(0.709 -0.7052 0.7052 0.709 -129.3887 118.5204)" class="st0" cx="78.91" cy="216.03" rx="5.28" ry="5.27"/>
			<path class="st0" d="M70.05,191.57c-2,1.99-5.24,1.99-7.22-0.01c-1.99-2-1.97-5.23,0.03-7.22c2-1.99,5.24-1.99,7.22,0.01
				S72.06,189.58,70.05,191.57z"/>
			
				<ellipse transform="matrix(0.709 -0.7052 0.7052 0.709 -95.5517 86.1674)" class="st0" cx="56.63" cy="158.86" rx="4.94" ry="4.93"/>
			
				<ellipse transform="matrix(0.709 -0.7052 0.7052 0.709 -76.556 72.4416)" class="st0" cx="49.49" cy="128.98" rx="4.77" ry="4.76"/>
			<path class="st0" d="M48.34,101.82c-1.8,1.79-4.71,1.79-6.5-0.01c-1.79-1.8-1.78-4.71,0.03-6.5s4.71-1.79,6.5,0.01
				S50.14,100.02,48.34,101.82z"/>
			
				<ellipse transform="matrix(0.709 -0.7052 0.7052 0.709 -35.207 50.4191)" class="st0" cx="43.49" cy="67.87" rx="4.43" ry="4.42"/>
			<path class="st0" d="M47.65,40.16c-1.67,1.66-4.36,1.66-6.02-0.01c-1.66-1.66-1.64-4.36,0.02-6.02c1.67-1.66,4.36-1.66,6.02,0.01
				C49.33,35.8,49.32,38.5,47.65,40.16z"/>
			<path class="st0" d="M51.46,9.54c-1.6,1.59-4.19,1.59-5.78-0.01c-1.59-1.6-1.58-4.18,0.02-5.78c1.6-1.59,4.19-1.59,5.78,0.01
				S53.07,7.94,51.46,9.54z"/>
		</g>
		<g>
			<path class="st0" d="M448.57,441.96c-1.85,1.84-4.85,1.84-6.69-0.01c-1.84-1.85-1.83-4.84,0.03-6.69
				c1.85-1.84,4.85-1.84,6.69,0.01C450.44,437.12,450.43,440.11,448.57,441.96z"/>
			
				<ellipse transform="matrix(0.709 -0.7052 0.7052 0.709 -191.5383 421.1489)" class="st0" cx="414.51" cy="442.65" rx="4.58" ry="4.57"/>
			<path class="st0" d="M386.68,447.31c-1.73,1.73-4.54,1.72-6.26-0.01c-1.72-1.73-1.71-4.53,0.03-6.26
				c1.73-1.73,4.54-1.72,6.26,0.01C388.42,442.79,388.41,445.59,386.68,447.31z"/>
			<path class="st0" d="M355.6,446.23c-1.67,1.67-4.38,1.66-6.04-0.01c-1.66-1.67-1.65-4.37,0.02-6.04
				c1.67-1.67,4.38-1.66,6.04,0.01C357.29,441.86,357.28,444.56,355.6,446.23z"/>
			<path class="st0" d="M324.72,442.63c-1.61,1.61-4.22,1.6-5.82-0.01c-1.6-1.61-1.59-4.22,0.02-5.82c1.61-1.61,4.22-1.6,5.82,0.01
				C326.34,438.42,326.33,441.03,324.72,442.63z"/>
			
				<ellipse transform="matrix(0.709 -0.7052 0.7052 0.709 -221.0756 331.7572)" class="st0" cx="291.43" cy="433.74" rx="3.97" ry="3.96"/>
			
				<ellipse transform="matrix(0.709 -0.7052 0.7052 0.709 -223.7975 308.2932)" class="st0" cx="261.64" cy="425.31" rx="3.82" ry="3.81"/>
			
				<ellipse transform="matrix(0.709 -0.7052 0.7052 0.709 -224.5879 284.6894)" class="st0" cx="232.65" cy="414.46" rx="3.67" ry="3.66"/>
			
				<ellipse transform="matrix(0.709 -0.7052 0.7052 0.709 -223.4356 261.104)" class="st0" cx="204.65" cy="401.28" rx="3.51" ry="3.5"/>
			
				<ellipse transform="matrix(0.709 -0.7052 0.7052 0.709 -220.3458 237.6966)" class="st0" cx="177.83" cy="385.83" rx="3.36" ry="3.35"/>
			
				<ellipse transform="matrix(0.709 -0.7052 0.7052 0.709 -215.3433 214.6284)" class="st0" cx="152.38" cy="368.23" rx="3.21" ry="3.2"/>
			<path class="st0" d="M130.6,350.78c-1.2,1.19-3.13,1.19-4.31-0.01c-1.19-1.19-1.18-3.12,0.02-4.31s3.13-1.19,4.31,0.01
				C131.81,347.65,131.8,349.59,130.6,350.78z"/>
			<path class="st0" d="M108.23,329.18c-1.14,1.13-2.97,1.13-4.1-0.01c-1.13-1.13-1.12-2.97,0.02-4.1c1.14-1.13,2.97-1.13,4.1,0.01
				C109.38,326.21,109.37,328.05,108.23,329.18z"/>
			<path class="st0" d="M87.67,305.85c-1.08,1.07-2.82,1.07-3.88-0.01c-1.07-1.07-1.06-2.81,0.02-3.88
				c1.08-1.07,2.82-1.07,3.88,0.01C88.75,303.05,88.74,304.78,87.67,305.85z"/>
			<path class="st0" d="M69.05,280.94c-1.02,1.01-2.66,1.01-3.67,0s-1-2.66,0.01-3.67c1.02-1.01,2.66-1.01,3.67,0
				S70.07,279.93,69.05,280.94z"/>
			<path class="st0" d="M52.54,254.59c-0.96,0.95-2.5,0.95-3.45,0c-0.95-0.95-0.94-2.5,0.01-3.45c0.96-0.95,2.5-0.95,3.45,0
				C53.5,252.09,53.49,253.64,52.54,254.59z"/>
			
				<ellipse transform="matrix(0.709 -0.7052 0.7052 0.709 -148.2711 91.4134)" class="st0" cx="36.62" cy="225.36" rx="2.29" ry="2.28"/>
			<path class="st0" d="M26.25,198.29c-0.84,0.83-2.19,0.83-3.02,0c-0.83-0.84-0.83-2.19,0.01-3.02c0.84-0.83,2.19-0.83,3.02,0
				C27.09,196.1,27.08,197.45,26.25,198.29z"/>
			<path class="st0" d="M16.64,168.72c-0.78,0.77-2.03,0.77-2.8,0s-0.77-2.03,0.01-2.8c0.78-0.77,2.03-0.77,2.8,0
				C17.42,166.69,17.42,167.94,16.64,168.72z"/>
			<path class="st0" d="M9.47,138.46c-0.72,0.71-1.88,0.71-2.59,0c-0.71-0.72-0.71-1.87,0.01-2.59c0.72-0.71,1.88-0.71,2.59,0
				C10.2,136.59,10.19,137.75,9.47,138.46z"/>
			<path class="st0" d="M4.79,107.72c-0.66,0.65-1.72,0.65-2.37,0c-0.65-0.66-0.65-1.72,0.01-2.37s1.72-0.65,2.37,0
				C5.45,106.01,5.44,107.07,4.79,107.72z"/>
			<path class="st0" d="M2.6,76.71c-0.6,0.59-1.56,0.59-2.16,0c-0.59-0.6-0.59-1.56,0.01-2.16c0.6-0.6,1.56-0.59,2.16,0
				S3.2,76.11,2.6,76.71z"/>
			<path class="st0" d="M2.92,45.62c-0.54,0.54-1.41,0.53-1.94,0s-0.53-1.41,0.01-1.94c0.54-0.54,1.41-0.53,1.94,0
				S3.46,45.08,2.92,45.62z"/>
			<ellipse transform="matrix(0.709 -0.7052 0.7052 0.709 -8.3032 7.4704)" class="st0" cx="4.9" cy="13.8" rx="1.22" ry="1.22"/>
		</g>
	</g>
</g>
</svg>
