<?xml version="1.0" encoding="utf-8"?>
<!-- Generator: Adobe Illustrator 23.0.4, SVG Export Plug-In . SVG Version: 6.00 Build 0)  -->
<svg version="1.1" id="_x2014_ÎÓÈ_x5F_1" xmlns="http://www.w3.org/2000/svg" xmlns:xlink="http://www.w3.org/1999/xlink"
	 x="0px" y="0px" viewBox="0 0 350.02 359.42" style="enable-background:new 0 0 350.02 359.42;" xml:space="preserve">
<style type="text/css">
	.st0{fill:#FFFFFF;}
</style>
<g>
	<path class="st0" d="M1.48,37.89c1.54-1.04,3.64-0.62,4.67,0.91c1.04,1.54,0.63,3.63-0.91,4.67c-1.54,1.03-3.62,0.61-4.66-0.93
		c-0.94-1.39-0.7-3.22,0.5-4.33C1.2,38.11,1.34,37.99,1.48,37.89z M31.83,20.74c1.68-0.78,3.68-0.05,4.46,1.63
		c0.78,1.68,0.06,3.67-1.63,4.46c-1.68,0.78-3.67,0.04-4.46-1.63c-0.62-1.37-0.28-2.92,0.77-3.89
		C31.21,21.08,31.51,20.89,31.83,20.74z M64.5,8.54c1.79-0.51,3.64,0.52,4.16,2.31c0.51,1.77-0.52,3.64-2.3,4.15
		c-1.79,0.51-3.64-0.52-4.16-2.31c-0.36-1.25,0.04-2.55,0.94-3.39C63.52,8.94,63.97,8.68,64.5,8.54z M98.69,1.59
		c1.83-0.23,3.51,1.07,3.74,2.92c0.23,1.83-1.08,3.52-2.92,3.74c-1.84,0.24-3.51-1.07-3.74-2.92c-0.14-1.11,0.28-2.16,1.05-2.87
		C97.31,2,97.95,1.68,98.69,1.59z M133.51,0c1.85,0.07,3.3,1.61,3.24,3.47c-0.07,1.85-1.61,3.3-3.47,3.24
		c-1.84-0.06-3.3-1.61-3.25-3.46c0.05-0.94,0.45-1.76,1.09-2.36C131.75,0.32,132.59-0.03,133.51,0z M168.15,3.83
		c1.82,0.35,3.01,2.11,2.68,3.93c-0.34,1.83-2.1,3.02-3.93,2.68c-1.83-0.34-3.02-2.1-2.68-3.93c0.15-0.73,0.5-1.36,1.02-1.84
		C165.99,3.97,167.05,3.63,168.15,3.83z M201.77,12.97c1.75,0.62,2.66,2.55,2.03,4.29c-0.62,1.74-2.55,2.66-4.29,2.03
		c-1.75-0.62-2.66-2.55-2.03-4.29c0.2-0.53,0.51-0.98,0.89-1.33C199.26,12.85,200.57,12.54,201.77,12.97z M233.59,27.21
		c1.63,0.89,2.23,2.92,1.34,4.55c-0.88,1.64-2.92,2.23-4.55,1.34c-1.62-0.88-2.23-2.92-1.34-4.56c0.18-0.33,0.4-0.6,0.66-0.84
		C230.73,26.75,232.3,26.51,233.59,27.21z M262.78,46.29c1.47,1.14,1.74,3.24,0.61,4.71c-1.13,1.48-3.24,1.74-4.71,0.61
		c-1.48-1.13-1.74-3.24-0.61-4.71c0.11-0.15,0.24-0.29,0.37-0.41C259.63,45.38,261.46,45.26,262.78,46.29z M288.66,69.65
		c1.27,1.34,1.2,3.47-0.13,4.75c-1.35,1.28-3.48,1.21-4.75-0.13c-1.28-1.33-1.22-3.47,0.12-4.74
		C285.28,68.25,287.38,68.32,288.66,69.65z M305.94,95.86c1.52-1.05,3.61-0.67,4.66,0.85c1.07,1.53,0.68,3.63-0.84,4.67
		c-1.54,1.06-3.61,0.67-4.68-0.86c-0.94-1.39-0.72-3.25,0.49-4.36C305.67,96.06,305.8,95.96,305.94,95.86z M323.62,125.27
		c1.67-0.79,3.68-0.1,4.48,1.57c0.8,1.68,0.1,3.68-1.57,4.48c-1.67,0.81-3.67,0.11-4.48-1.57c-0.66-1.36-0.32-2.93,0.74-3.91
		C323.03,125.62,323.31,125.43,323.62,125.27z M336.52,157.14c1.77-0.54,3.64,0.47,4.17,2.26c0.53,1.78-0.49,3.64-2.26,4.17
		c-1.78,0.53-3.65-0.48-4.17-2.26c-0.38-1.27,0.03-2.59,0.94-3.43C335.55,157.55,336,157.3,336.52,157.14z M344.26,190.6
		c1.84-0.24,3.52,1.04,3.79,2.88c0.24,1.84-1.05,3.54-2.89,3.78c-1.83,0.25-3.53-1.04-3.78-2.86c-0.16-1.13,0.27-2.2,1.05-2.92
		C342.93,191.01,343.55,190.69,344.26,190.6z M346.74,224.87c1.86,0.04,3.32,1.56,3.28,3.42c-0.05,1.85-1.58,3.32-3.42,3.28
		c-1.86-0.04-3.33-1.57-3.28-3.42c0.01-0.95,0.44-1.8,1.07-2.39C345.01,225.19,345.83,224.84,346.74,224.87z M343.89,259.08
		c1.82,0.33,3.04,2.08,2.71,3.89c-0.32,1.83-2.08,3.05-3.89,2.71c-1.83-0.32-3.05-2.05-2.73-3.88c0.15-0.75,0.52-1.39,1.03-1.87
		C341.77,259.23,342.81,258.89,343.89,259.08z M335.78,292.43c1.75,0.6,2.68,2.52,2.08,4.27c-0.6,1.75-2.52,2.68-4.27,2.08
		c-1.75-0.6-2.68-2.52-2.08-4.27c0.19-0.54,0.49-1,0.88-1.37C333.27,292.32,334.57,292.02,335.78,292.43z M322.59,324.12
		c1.64,0.86,2.27,2.89,1.38,4.53c-0.87,1.63-2.9,2.25-4.53,1.38c-1.64-0.86-2.27-2.89-1.38-4.53c0.17-0.34,0.4-0.65,0.66-0.89
		C319.74,323.67,321.28,323.43,322.59,324.12z M304.6,353.38c1.48,1.1,1.78,3.21,0.66,4.7c-1.11,1.49-3.23,1.78-4.7,0.67
		c-1.49-1.11-1.79-3.22-0.68-4.71c0.13-0.16,0.26-0.31,0.41-0.45C301.47,352.5,303.28,352.38,304.6,353.38z"/>
	<path class="st0" d="M31.74,69.9c2.53-1.57,5.82-0.79,7.39,1.74c1.54,2.53,0.75,5.82-1.76,7.38c-2.53,1.57-5.82,0.78-7.4-1.74
		c-1.36-2.22-0.91-5.05,0.92-6.74C31.15,70.29,31.43,70.08,31.74,69.9z M63.52,54.38c2.8-1.02,5.9,0.39,6.92,3.19
		c1.04,2.78-0.39,5.86-3.17,6.89c-2.78,1.04-5.86-0.39-6.9-3.17c-0.78-2.1-0.18-4.38,1.38-5.82C62.24,55.01,62.84,54.63,63.52,54.38
		z M97.76,45.43c2.92-0.48,5.7,1.53,6.14,4.45c0.48,2.92-1.53,5.7-4.45,6.14c-2.92,0.48-5.68-1.51-6.14-4.45
		c-0.31-1.83,0.36-3.59,1.65-4.78C95.71,46.09,96.67,45.6,97.76,45.43z M133.05,43.3c2.98,0.09,5.3,2.6,5.17,5.58
		c-0.09,2.94-2.6,5.26-5.56,5.15c-2.96-0.11-5.26-2.6-5.17-5.54c0.06-1.52,0.72-2.82,1.72-3.76
		C130.22,43.8,131.57,43.24,133.05,43.3z M168.12,48.05c2.88,0.7,4.65,3.6,3.99,6.48c-0.7,2.88-3.58,4.67-6.48,3.99
		c-2.88-0.7-4.67-3.58-3.99-6.48c0.27-1.05,0.84-1.98,1.58-2.68C164.48,48.2,166.31,47.64,168.12,48.05z M201.56,59.58
		c2.71,1.23,3.88,4.43,2.64,7.12c-1.24,2.69-4.43,3.88-7.12,2.64c-2.69-1.24-3.88-4.43-2.64-7.12c0.29-0.67,0.71-1.25,1.22-1.72
		C197.2,59.07,199.52,58.64,201.56,59.58z M232.1,77.39c2.4,1.76,2.94,5.11,1.2,7.5c-1.75,2.43-5.11,2.94-7.5,1.2
		c-2.41-1.73-2.94-5.08-1.2-7.5c0.2-0.3,0.44-0.55,0.7-0.79C227.13,76.1,229.99,75.86,232.1,77.39z M258.57,100.86
		c2.01,2.17,1.9,5.56-0.29,7.59c-2.17,2.01-5.56,1.9-7.59-0.29c-2.01-2.17-1.9-5.57,0.29-7.59
		C253.15,98.57,256.55,98.68,258.57,100.86z M272.61,127.23c2.53-1.54,5.84-0.77,7.38,1.75c1.55,2.51,0.78,5.82-1.75,7.4
		c-2.53,1.54-5.82,0.76-7.38-1.75c-1.36-2.21-0.94-5.05,0.91-6.77C272.02,127.62,272.31,127.42,272.61,127.23z M288.61,157.6
		c2.78-1.04,5.86,0.39,6.89,3.17c1.03,2.78-0.38,5.88-3.15,6.91c-2.78,1.04-5.88-0.37-6.89-3.17c-0.79-2.08-0.17-4.38,1.38-5.82
		C287.34,158.23,287.94,157.86,288.61,157.6z M298.35,190.53c2.92-0.48,5.7,1.52,6.16,4.43c0.46,2.94-1.53,5.7-4.45,6.18
		c-2.94,0.46-5.68-1.54-6.16-4.47c-0.27-1.83,0.39-3.61,1.65-4.78C296.31,191.18,297.26,190.7,298.35,190.53z M301.48,224.71
		c2.98,0.09,5.3,2.6,5.19,5.56c-0.11,2.96-2.6,5.3-5.56,5.19c-2.96-0.11-5.28-2.61-5.19-5.56c0.08-1.5,0.72-2.82,1.72-3.76
		C298.65,225.21,300.02,224.67,301.48,224.71z M297.94,258.85c2.88,0.7,4.68,3.58,4,6.49c-0.68,2.87-3.58,4.68-6.46,3.98
		c-2.88-0.66-4.68-3.58-4-6.45c0.27-1.09,0.82-2,1.59-2.72C294.32,258.98,296.13,258.44,297.94,258.85z M287.81,291.68
		c2.69,1.24,3.88,4.43,2.64,7.12c-1.23,2.71-4.41,3.9-7.1,2.66c-2.71-1.22-3.9-4.41-2.68-7.12c0.33-0.67,0.75-1.24,1.24-1.7
		C283.47,291.19,285.77,290.74,287.81,291.68z M271.44,321.85c2.4,1.77,2.95,5.11,1.22,7.52c-1.76,2.4-5.11,2.94-7.51,1.21
		c-2.4-1.77-2.95-5.11-1.18-7.51c0.2-0.3,0.44-0.55,0.69-0.79C266.49,320.57,269.33,320.32,271.44,321.85z"/>
</g>
</svg>
