<svg version="1.1" id="law_icon" xmlns="http://www.w3.org/2000/svg" xmlns:xlink="http://www.w3.org/1999/xlink" x="0px" y="0px"
	 viewBox="0 0 90.29 87.33" style="enable-background:new 0 0 90.29 87.33;" xml:space="preserve">
<style type="text/css">
	.law_icon-st0{fill:#9CC8ED;}
</style>
<g>
	<g>
		<rect x="25.44" y="19.03" class="law_icon-st0" width="39.41" height="2.32"/>
	</g>
	<g>
		<polygon class="law_icon-st0" points="30.6,52.37 8.25,52.37 8.25,39.1 10.57,39.1 10.57,50.05 30.6,50.05 		"/>
	</g>
	<g>
		<polygon class="law_icon-st0" points="82.04,52.37 55.98,52.37 55.98,50.05 79.72,50.05 79.72,39.1 82.04,39.1 		"/>
	</g>
	<g>
		<path class="law_icon-st0" d="M80.77,37.21c-4.33,0-7.85-3.52-7.85-7.85c0-3.59,2.92-6.52,6.52-6.52c3,0,5.44,2.44,5.44,5.44h-2.32
			c0-1.72-1.4-3.12-3.12-3.12c-2.31,0-4.19,1.88-4.19,4.19c0,3.05,2.48,5.53,5.53,5.53c3.97,0,7.2-3.23,7.2-7.2
			c0-5.13-4.17-9.3-9.3-9.3c-6.57,0-11.91,5.34-11.91,11.91v3.31H23.53v-3.31c0-6.57-5.34-11.91-11.91-11.91
			c-5.13,0-9.3,4.17-9.3,9.3c0,3.97,3.23,7.2,7.2,7.2c3.05,0,5.53-2.48,5.53-5.53c0-2.31-1.88-4.19-4.19-4.19
			c-1.72,0-3.12,1.4-3.12,3.12H5.42c0-3,2.44-5.44,5.44-5.44c3.59,0,6.52,2.92,6.52,6.52c0,4.33-3.52,7.85-7.85,7.85
			C4.27,37.21,0,32.93,0,27.68c0-6.41,5.21-11.62,11.62-11.62c7.85,0,14.23,6.38,14.23,14.23v0.99h38.59v-0.99
			c0-7.85,6.38-14.23,14.23-14.23c6.41,0,11.62,5.21,11.62,11.62C90.29,32.93,86.02,37.21,80.77,37.21z"/>
	</g>
	<g>
		<g>
			<path class="law_icon-st0" d="M34.08,87.33h-2.32V66.16c0-2.16-1.76-3.91-3.91-3.91h-0.1c-2.16,0-3.91,1.76-3.91,3.91v21.18h-2.32V66.16
				c0-3.44,2.8-6.24,6.24-6.24h0.1c3.44,0,6.24,2.8,6.24,6.24V87.33z"/>
		</g>
		<g>
			<path class="law_icon-st0" d="M51.43,87.33h-2.32V66.16c0-2.16-1.76-3.91-3.91-3.91h-0.1c-2.16,0-3.91,1.76-3.91,3.91v21.18h-2.32V66.16
				c0-3.44,2.8-6.24,6.24-6.24h0.1c3.44,0,6.24,2.8,6.24,6.24V87.33z"/>
		</g>
		<g>
			<path class="law_icon-st0" d="M68.79,87.33h-2.32V66.16c0-2.16-1.76-3.91-3.91-3.91h-0.1c-2.16,0-3.91,1.76-3.91,3.91v21.18h-2.32V66.16
				c0-3.44,2.8-6.24,6.24-6.24h0.1c3.44,0,6.24,2.8,6.24,6.24V87.33z"/>
		</g>
	</g>
	<g>
		<rect x="14.44" y="55.73" class="law_icon-st0" width="2.32" height="31.6"/>
	</g>
	<g>
		<rect x="73.53" y="55.73" class="law_icon-st0" width="2.32" height="31.6"/>
	</g>
	<g>
		<rect x="31.73" y="20.19" class="law_icon-st0" width="2.32" height="12.19"/>
	</g>
	<g>
		<rect x="39.9" y="20.19" class="law_icon-st0" width="2.32" height="12.19"/>
	</g>
	<g>
		<rect x="48.07" y="20.19" class="law_icon-st0" width="2.32" height="12.19"/>
	</g>
	<g>
		<rect x="56.24" y="20.19" class="law_icon-st0" width="2.32" height="12.19"/>
	</g>
	<g>
		<path class="law_icon-st0" d="M55.98,52.37h-0.61v-2.32h0.61V52.37z M52.27,52.37h-3.1v-2.32h3.1V52.37z M46.08,52.37h-3.1v-2.32h3.1V52.37
			z M39.89,52.37h-3.1v-2.32h3.1V52.37z M33.7,52.37h-3.1v-2.32h3.1V52.37z"/>
	</g>
	<g>
		<rect x="10.48" class="law_icon-st0" width="69.34" height="2.32"/>
	</g>
	<g>
		<g>
			<path class="law_icon-st0" d="M68.08,17.68l-0.98-2.11c2.82-1.3,4.68-3.98,4.95-7.01h-6.78V6.24h9.09l0.04,1.12
				C74.57,11.77,72.09,15.83,68.08,17.68z"/>
		</g>
		<g>
			<path class="law_icon-st0" d="M22.22,17.68c-4.01-1.86-6.49-5.91-6.33-10.33l0.04-1.12h5.99v2.32h-3.69c0.28,3.03,2.14,5.71,4.95,7.01
				L22.22,17.68z"/>
		</g>
	</g>
	<g>
		<path class="law_icon-st0" d="M62.17,8.56h-3.1V6.24h3.1V8.56z M55.98,8.56h-3.1V6.24h3.1V8.56z M49.79,8.56h-3.1V6.24h3.1V8.56z
			 M43.6,8.56h-3.1V6.24h3.1V8.56z M37.41,8.56h-3.1V6.24h3.1V8.56z M31.21,8.56h-3.1V6.24h3.1V8.56z M25.02,8.56h-3.1V6.24h3.1
			V8.56z"/>
	</g>
</g>
</svg>
