<?xml version="1.0" encoding="utf-8"?>
<!-- Generator: Adobe Illustrator 23.0.4, SVG Export Plug-In . SVG Version: 6.00 Build 0)  -->
<svg version="1.1" id="Layer_1" xmlns="http://www.w3.org/2000/svg" xmlns:xlink="http://www.w3.org/1999/xlink" x="0px" y="0px"
	 viewBox="0 0 236.61 58.07" style="enable-background:new 0 0 236.61 58.07;" xml:space="preserve">
<style type="text/css">
	.st0{fill:#D52327;}
	.st1{fill:#1B4795;}
	.st2{fill:#FFFFFF;}
	.st3{fill:#09203E;}
</style>
<ellipse transform="matrix(0.3827 -0.9239 0.9239 0.3827 -18.7376 29.8428)" class="st0" cx="12.96" cy="28.94" rx="12.96" ry="12.96"/>
<g>
	<g>
		<path class="st1" d="M43.89,27.37c6.3-1.57,10.12-6.47,10.12-12.86C54.01,5.56,46.38,0,34.02,0H8.22v13.88
			c1.5-0.47,3.09-0.73,4.74-0.73c2.27,0,4.42,0.49,6.37,1.35V9.62h14.1c5.73-0.08,9.21,2.49,9.21,6.88c0,4.56-3.48,7.22-9.21,7.22
			h-1.02v9.37h1.02c7.05-0.08,11.28,2.82,11.28,7.55c0,4.98-4.23,7.88-11.28,7.8h-14.1v-5.06c-1.95,0.86-4.1,1.35-6.37,1.35
			c-1.65,0-3.24-0.26-4.74-0.73v14.06h26.55c13.27,0,21.48-6.05,21.48-16.01C56.25,34.34,51.61,28.79,43.89,27.37z"/>
	</g>
</g>
<polygon class="st2" points="20.75,26.61 15.3,26.61 15.3,21.15 10.63,21.15 10.63,26.61 5.17,26.61 5.17,31.28 10.63,31.28 
	10.63,36.73 15.3,36.73 15.3,31.28 20.75,31.28 "/>
<g>
	<path class="st3" d="M80.89,9.93c0,2.13-1.37,3.85-3.53,4.43c2.6,0.53,4.2,2.54,4.2,5.16c0,3.5-3.06,5.69-7.88,5.69H63.59V4.77
		h9.71C77.94,4.77,80.89,6.78,80.89,9.93z M75.4,10.87c0-1.22-0.9-1.95-2.39-1.93h-4.08v3.97h4.08C74.5,12.91,75.4,12.15,75.4,10.87
		z M76.05,18.86c0-1.28-1.17-2.1-3.03-2.07h-4.08v4.29h4.08C74.88,21.08,76.05,20.26,76.05,18.86z"/>
	<path class="st3" d="M93.63,20.9c2.36,0,4-1.6,4-4.26V4.77h5.34v11.87c0,5.4-3.62,8.81-9.36,8.81c-5.78,0-9.48-3.41-9.48-8.81V4.77
		h5.34v11.87C89.46,19.27,91.21,20.9,93.63,20.9z"/>
	<path class="st3" d="M116.29,9.14c-3.15,0-5.54,2.48-5.54,5.75c0,3.3,2.39,5.81,5.54,5.81c1.69,0,3.65-0.93,5.08-2.39l3.12,3.35
		c-2.19,2.3-5.45,3.79-8.49,3.79c-6.16,0-10.74-4.49-10.74-10.5c0-5.89,4.7-10.33,10.94-10.33c3.03,0,6.21,1.34,8.26,3.5l-3.09,3.7
		C120.03,10.19,118.07,9.14,116.29,9.14z"/>
	<path class="st3" d="M132.1,4.77v8.34h8.26V4.77h5.34v20.45h-5.34v-7.85h-8.26v7.85h-5.34V4.77H132.1z"/>
	<path class="st3" d="M163.28,21.6h-8.84l-1.43,3.62h-5.48l8.78-20.45h5.48l8.58,20.45h-5.69L163.28,21.6z M161.71,17.52l-2.8-7.29
		l-2.86,7.29H161.71z"/>
	<path class="st3" d="M176.9,4.77l9.28,12.31V4.77h4.96v20.45h-4.67l-9.28-12.25v12.25h-4.99V4.77H176.9z"/>
	<path class="st3" d="M208.75,21.6h-8.84l-1.43,3.62H193l8.78-20.45h5.48l8.58,20.45h-5.69L208.75,21.6z M207.18,17.52l-2.8-7.29
		l-2.86,7.29H207.18z"/>
	<path class="st3" d="M222.37,4.77l9.28,12.31V4.77h4.96v20.45h-4.67l-9.28-12.25v12.25h-4.99V4.77H222.37z"/>
	<path class="st3" d="M78.88,33.45l-0.03,4.26h-9.92v4.55h9.16v4.26h-9.16v7.38h-5.34V33.45H78.88z"/>
	<path class="st3" d="M86.63,33.45V53.9h-5.34V33.45H86.63z"/>
	<path class="st3" d="M102.88,53.9l-2.98-5.66h-0.12h-3.85v5.66H90.6V33.45h9.19c5.43,0,8.52,2.63,8.52,7.18
		c0,3.09-1.28,5.37-3.65,6.59l4.26,6.68H102.88z M95.94,43.98h3.88c2.16,0,3.41-1.11,3.41-3.18c0-2.01-1.25-3.09-3.41-3.09h-3.88
		V43.98z"/>
	<path class="st3" d="M117.55,33.45l5.43,11.93l5.43-11.93h5.83V53.9h-4.73l-0.03-12.95l-4.76,10.91h-3.5l-4.76-10.91V53.9h-4.76
		V33.45H117.55z"/>
</g>
</svg>
